<svg width="123" height="30" viewBox="0 0 123 30" fill="none" xmlns="http://www.w3.org/2000/svg">
<path d="M0.75 9.07227L11.4072 15.5283V28.5L0.75 22.0638V9.07227Z" fill="white"/>
<path d="M26.2493 10.1055L13.5156 15.5286V28.4996L26.2493 23.097V10.1055Z" fill="white"/>
<path d="M14.4317 1.5L1.71777 6.94425L12.3749 13.4006L25.1089 7.97707L14.4317 1.5Z" fill="white"/>
<path d="M32.8817 23V5.54545H44.234V8.19602H36.0437V12.9347H43.646V15.5852H36.0437V20.3494H44.3022V23H32.8817ZM49.7815 23.2301C48.7531 23.2301 47.8326 22.9659 47.0201 22.4375C46.2076 21.9091 45.5656 21.142 45.094 20.1364C44.6224 19.1307 44.3866 17.9091 44.3866 16.4716C44.3866 15.017 44.6252 13.7898 45.1025 12.7898C45.5854 11.7841 46.236 11.0256 47.0542 10.5142C47.8724 9.99716 48.7843 9.73864 49.79 9.73864C50.557 9.73864 51.1877 9.86932 51.682 10.1307C52.1764 10.3864 52.5684 10.696 52.8582 11.0597C53.1479 11.4176 53.3724 11.7557 53.5315 12.0739H53.6593V5.54545H56.7531V23H53.719V20.9375H53.5315C53.3724 21.2557 53.1423 21.5937 52.8411 21.9517C52.54 22.304 52.1423 22.6051 51.6479 22.8551C51.1536 23.1051 50.5315 23.2301 49.7815 23.2301ZM50.6423 20.6989C51.2957 20.6989 51.8525 20.5227 52.3127 20.1705C52.7729 19.8125 53.1224 19.3153 53.361 18.679C53.5996 18.0426 53.719 17.3011 53.719 16.4545C53.719 15.608 53.5996 14.8722 53.361 14.2472C53.1281 13.6222 52.7815 13.1364 52.3212 12.7898C51.8667 12.4432 51.307 12.2699 50.6423 12.2699C49.9548 12.2699 49.3809 12.4489 48.9207 12.8068C48.4604 13.1648 48.1138 13.6591 47.8809 14.2898C47.6479 14.9205 47.5315 15.642 47.5315 16.4545C47.5315 17.2727 47.6479 18.0028 47.8809 18.6449C48.1195 19.2812 48.469 19.7841 48.9292 20.1534C49.3951 20.517 49.9661 20.6989 50.6423 20.6989ZM65.9844 17.4943V9.90909H69.0697V23H66.0782V20.6733H65.9418C65.6464 21.4062 65.1606 22.0057 64.4844 22.4716C63.814 22.9375 62.9873 23.1705 62.0043 23.1705C61.1464 23.1705 60.3879 22.9801 59.7288 22.5994C59.0754 22.2131 58.564 21.6534 58.1947 20.9205C57.8254 20.1818 57.6407 19.2898 57.6407 18.2443V9.90909H60.7259V17.767C60.7259 18.5966 60.9532 19.2557 61.4077 19.7443C61.8623 20.233 62.4589 20.4773 63.1975 20.4773C63.6521 20.4773 64.0924 20.3665 64.5185 20.1449C64.9447 19.9233 65.2941 19.5938 65.5668 19.1562C65.8452 18.7131 65.9844 18.1591 65.9844 17.4943ZM69.9786 23V5.54545H76.6604C77.9218 5.54545 78.9701 5.74432 79.8053 6.14204C80.6462 6.53409 81.2741 7.07102 81.6888 7.75284C82.1093 8.43466 82.3195 9.20739 82.3195 10.071C82.3195 10.7812 82.1832 11.3892 81.9104 11.8949C81.6377 12.3949 81.2712 12.8011 80.811 13.1136C80.3508 13.4261 79.8366 13.6506 79.2684 13.7869V13.9574C79.8877 13.9915 80.4815 14.1818 81.0496 14.5284C81.6235 14.8693 82.0923 15.3523 82.4559 15.9773C82.8195 16.6023 83.0013 17.358 83.0013 18.2443C83.0013 19.1477 82.7826 19.9602 82.3451 20.6818C81.9076 21.3977 81.2485 21.9631 80.3678 22.3778C79.4871 22.7926 78.3792 23 77.044 23H69.9786ZM73.1406 20.358H76.5411C77.6888 20.358 78.5156 20.1392 79.0212 19.7017C79.5326 19.2585 79.7883 18.6903 79.7883 17.9972C79.7883 17.4801 79.6604 17.0142 79.4048 16.5994C79.1491 16.179 78.7854 15.8494 78.3138 15.6108C77.8423 15.3665 77.2798 15.2443 76.6263 15.2443H73.1406V20.358ZM73.1406 12.9688H76.2684C76.8138 12.9688 77.3053 12.8693 77.7428 12.6705C78.1803 12.4659 78.5241 12.179 78.7741 11.8097C79.0298 11.4347 79.1576 10.9915 79.1576 10.4801C79.1576 9.80398 78.919 9.24716 78.4417 8.80966C77.9701 8.37216 77.2684 8.15341 76.3366 8.15341H73.1406V12.9688ZM88.9259 23.2557C87.6475 23.2557 86.5396 22.9744 85.6021 22.4119C84.6646 21.8494 83.9373 21.0625 83.4202 20.0511C82.9089 19.0398 82.6532 17.858 82.6532 16.5057C82.6532 15.1534 82.9089 13.9687 83.4202 12.9517C83.9373 11.9347 84.6646 11.1449 85.6021 10.5824C86.5396 10.0199 87.6475 9.73864 88.9259 9.73864C90.2043 9.73864 91.3123 10.0199 92.2498 10.5824C93.1873 11.1449 93.9117 11.9347 94.4231 12.9517C94.9401 13.9687 95.1987 15.1534 95.1987 16.5057C95.1987 17.858 94.9401 19.0398 94.4231 20.0511C93.9117 21.0625 93.1873 21.8494 92.2498 22.4119C91.3123 22.9744 90.2043 23.2557 88.9259 23.2557ZM88.943 20.7841C89.6362 20.7841 90.2157 20.5937 90.6816 20.2131C91.1475 19.8267 91.4941 19.3097 91.7214 18.6619C91.9543 18.0142 92.0708 17.2926 92.0708 16.4972C92.0708 15.696 91.9543 14.9716 91.7214 14.3239C91.4941 13.6705 91.1475 13.1506 90.6816 12.7642C90.2157 12.3778 89.6362 12.1847 88.943 12.1847C88.2327 12.1847 87.6418 12.3778 87.1702 12.7642C86.7043 13.1506 86.3549 13.6705 86.1219 14.3239C85.8947 14.9716 85.781 15.696 85.781 16.4972C85.781 17.2926 85.8947 18.0142 86.1219 18.6619C86.3549 19.3097 86.7043 19.8267 87.1702 20.2131C87.6418 20.5937 88.2327 20.7841 88.943 20.7841ZM97.4478 9.90909L100.09 14.7415L102.775 9.90909H106.039L102.093 16.4545L106.107 23H102.86L100.09 18.2869L97.3455 23H94.0728L98.0614 16.4545L94.1751 9.90909H97.4478Z" fill="white"/>
</svg>
