<svg width="76" height="75" viewBox="0 0 76 75" fill="none" xmlns="http://www.w3.org/2000/svg">
<g clip-path="url(#clip0_101_17996)">
<mask id="mask0_101_17996" style="mask-type:luminance" maskUnits="userSpaceOnUse" x="12" y="31" width="52" height="13">
<path d="M63.125 31.5H12.875V43.5H63.125V31.5Z" fill="white"/>
</mask>
<g mask="url(#mask0_101_17996)">
<path fill-rule="evenodd" clip-rule="evenodd" d="M15.8528 32.25V43.5H12.875V32.25H15.8528Z" fill="#CDCDCD"/>
<path fill-rule="evenodd" clip-rule="evenodd" d="M17.3418 32.25H23.6696C25.7253 32.25 27.3918 33.9289 27.3918 36C27.3918 38.0711 25.7253 39.75 23.6696 39.75H20.3196V43.5H17.3418V32.25ZM20.3196 36.75H23.6696C24.0807 36.75 24.414 36.4142 24.414 36C24.414 35.5858 24.0807 35.25 23.6696 35.25H20.3196V36.75Z" fill="#CDCDCD"/>
<path fill-rule="evenodd" clip-rule="evenodd" d="M38.5588 32.25V38.0625C38.5588 39.4087 39.642 40.5 40.9783 40.5C42.3145 40.5 43.3978 39.4087 43.3978 38.0625V32.25H46.3756V38.0625C46.3756 41.0656 43.9591 43.5 40.9783 43.5C37.9975 43.5 35.5811 41.0656 35.5811 38.0625V32.25H38.5588Z" fill="#CDCDCD"/>
<path fill-rule="evenodd" clip-rule="evenodd" d="M28.508 37.5C28.508 34.6005 30.8411 32.25 33.7191 32.25H34.4636V35.25H33.7191C32.4857 35.25 31.4858 36.2574 31.4858 37.5V37.875C31.4858 40.9816 28.9861 43.5 25.9025 43.5H25.5303V40.5H25.9025C27.3415 40.5 28.508 39.3248 28.508 37.875V37.5Z" fill="#CDCDCD"/>
<path d="M63.1249 32.625C63.1249 33.2463 62.6251 33.75 62.0081 33.75C61.3914 33.75 60.8916 33.2463 60.8916 32.625C60.8916 32.0037 61.3914 31.5 62.0081 31.5C62.6251 31.5 63.1249 32.0037 63.1249 32.625Z" fill="#CDCDCD"/>
<path d="M49.5721 43.4998L50.9931 37.5052L52.0495 41.1116C52.6793 43.2625 55.7035 43.2625 56.3336 41.1116L57.3897 37.5052L58.8107 43.4998H61.8721L59.6379 34.0736C59.1065 31.832 55.9711 31.749 55.3235 33.9594L54.1916 37.8248L53.0593 33.9594C52.412 31.749 49.2763 31.832 48.7449 34.0736L46.5107 43.4998H49.5721Z" fill="#CDCDCD"/>
</g>
</g>
<defs>
<clipPath id="clip0_101_17996">
<rect width="50.25" height="12" fill="white" transform="translate(12.875 31.5)"/>
</clipPath>
</defs>
</svg>
