<svg width="76" height="75" viewBox="0 0 76 75" fill="none" xmlns="http://www.w3.org/2000/svg">
<g clip-path="url(#clip0_101_17974)">
<mask id="mask0_101_17974" style="mask-type:luminance" maskUnits="userSpaceOnUse" x="8" y="30" width="60" height="15">
<path d="M8 30.8994H68V44.0994H8V30.8994Z" fill="white"/>
</mask>
<g mask="url(#mask0_101_17974)">
<path d="M66.4207 33.4283L67.8519 34.8154C67.902 34.8539 67.9389 34.9056 67.9582 34.9639C67.9873 35.3049 67.7187 35.3241 67.4446 35.3434C67.3257 35.3516 67.2062 35.3599 67.1094 35.3945C66.6321 35.5173 66.2034 35.7817 65.8796 36.153C65.5618 36.5169 65.3674 36.972 65.3242 37.4532C65.2928 37.5087 65.246 37.554 65.1894 37.5835C65.1281 37.6177 65.0574 37.6313 64.9878 37.6222C64.9182 37.613 64.8533 37.5817 64.8029 37.5329L64.3334 37.0781C64.3367 37.1094 64.3367 37.1402 64.3367 37.165V37.4653C64.3367 37.4845 64.3372 37.5027 64.335 37.5208C64.3317 37.5436 64.3222 37.5651 64.3075 37.583V37.6105C64.3075 37.6253 64.3097 37.638 64.3114 37.6517C64.3147 37.6792 64.3185 37.7073 64.3075 37.7469C64.2976 37.7837 64.2965 37.8272 64.2949 37.8651C64.2949 37.8882 64.2943 37.9091 64.2916 37.9267C64.2883 37.9504 64.2883 37.9762 64.2861 38.0015C64.2847 38.0258 64.279 38.0497 64.269 38.0719C64.2555 38.1007 64.2482 38.132 64.2475 38.1638C64.2464 38.1786 64.2464 38.1935 64.2464 38.2078L64.2272 38.304L63.4972 41.6535L63.4394 41.9043L63.4169 42.2701L63.0949 43.8519L63.0437 44.0994H37.0141L36.8886 43.9784L36.8666 44.084H34.0813L32.5306 42.5825L32.6787 41.9043H31.8035L31.2602 41.3752C30.5792 41.8499 29.7652 42.0969 28.935 42.0809C28.0439 42.1171 27.173 41.8091 26.5031 41.2207L25.6576 40.4001L25.4743 41.2234C25.4521 41.3373 25.4242 41.45 25.3906 41.5611L25.3615 41.6629L25.3136 41.8114C25.3095 41.8244 25.3039 41.8369 25.2971 41.8488C25.2492 41.9852 25.1925 42.1183 25.1264 42.2481C25.1281 42.253 25.1281 42.2585 25.1264 42.2635C25.1181 42.2806 25.1085 42.2972 25.0978 42.313C25.0492 42.4057 24.9955 42.4956 24.9371 42.5825C24.9262 42.5982 24.9164 42.6148 24.9079 42.632L24.8727 42.6694C24.7939 42.7781 24.708 42.8816 24.6156 42.979C24.5905 43.0029 24.5648 43.0262 24.5385 43.0489L24.4576 43.1182L24.3872 43.1831C24.3055 43.2482 24.2207 43.3091 24.1328 43.3657C23.4654 43.7447 22.7031 43.9241 21.9365 43.8827C20.8747 43.8827 20.0259 43.5857 19.4886 43.0654L17.9771 41.6013C17.3694 41.9313 16.687 42.0998 15.9954 42.0908C15.1072 42.1193 14.2419 41.8067 13.5772 41.2174L12.7312 40.3968L12.4576 41.6629L12.4031 41.9137H9.5567L8 40.4034L8.08037 40.0382L9.79174 32.1292L9.84294 31.8817H12.6993L12.773 31.9493V31.8811H32.016L32.087 31.9493V31.8811H34.8723L36.429 33.392L36.3519 33.7539L36.2683 34.1499H37.0686L37.1941 34.2709C37.549 34.0716 37.9485 33.9652 38.3556 33.9618C38.6556 33.9563 38.9539 34.0113 39.2308 34.1229C39.5063 34.2334 39.7558 34.3999 39.9635 34.6119L39.9217 34.5651L40.6774 35.2988C41.1376 34.4661 42.1697 33.9618 43.5723 33.9618C44.6595 33.9618 45.4604 34.228 45.9459 34.7109L46.4925 35.24L46.6758 34.3886L46.7308 34.1411H49.5189L50.3171 34.9122L50.4294 34.3919L50.4844 34.1444H55.9714L56.1189 34.2868C56.4933 34.075 56.9179 33.968 57.3481 33.9772C57.6073 33.9673 57.8655 34.0129 58.105 34.1108C58.3439 34.2087 58.558 34.3567 58.7303 34.5437L58.7044 34.5145C58.6893 34.4968 58.6735 34.4797 58.6571 34.4634L58.9367 34.7329C59.1822 34.4887 59.4745 34.2964 59.796 34.1675C60.1207 34.0375 60.4679 33.9728 60.8176 33.9772C61.0042 33.9662 61.1897 33.981 61.3703 34.0217L61.0659 33.7264C61.025 33.6842 60.9972 33.6312 60.9858 33.5736C60.9743 33.516 60.9798 33.4564 61.0015 33.4019C61.024 33.3469 61.0619 33.2996 61.1105 33.2655C61.1598 33.2308 61.2176 33.2102 61.2778 33.2061H61.5222C61.5881 33.2002 61.6537 33.191 61.7187 33.1786C62.0587 33.1101 62.3799 32.9688 62.66 32.7644C62.9385 32.5609 63.1659 32.3008 63.3266 32.0021C63.3409 31.979 63.3536 31.9554 63.3651 31.9306V31.9152C63.4758 31.6859 63.5429 31.4395 63.565 31.1876C63.5709 31.1087 63.6074 31.0353 63.6668 30.983C63.7272 30.9291 63.8055 30.8995 63.8864 30.8999H63.9123C63.9607 30.9037 64.0076 30.9184 64.0494 30.9431C64.0912 30.9678 64.1268 31.0018 64.1534 31.0424C64.3851 31.2591 65.6716 32.5191 65.6716 32.5191C65.7789 32.6297 65.7706 32.7738 65.7624 32.9195C65.7574 33.0097 65.7525 33.101 65.7739 33.1846C65.8889 33.2042 66.0052 33.2145 66.1218 33.2154C66.1882 33.2165 66.2527 33.2376 66.3068 33.2759C66.3602 33.3144 66.4004 33.3672 66.4207 33.4283Z" fill="#B5B5B5"/>
<path d="M22.721 34.447H24.7539L23.615 39.6445C23.4058 40.629 23.0073 41.1928 22.4029 41.5915C21.787 41.9343 21.0865 42.0954 20.3827 42.0563C19.0385 42.0563 17.7487 41.5145 17.6199 40.1989H19.6654C19.7298 40.5086 20.026 40.6851 20.4762 40.6851C21.084 40.6851 21.3636 40.332 21.4891 39.7776L21.6113 39.2056H21.5662C21.3852 39.3965 21.1676 39.5491 20.9265 39.6544C20.6827 39.7611 20.4203 39.8188 20.1542 39.8244C18.9707 39.8244 18.0317 38.9169 18.0515 37.5892C18.0768 36.0415 19.1249 34.2831 20.8847 34.2831C21.2177 34.2611 21.5507 34.3326 21.8436 34.4866C22.1364 34.6417 22.3775 34.8738 22.5377 35.156H22.5729L22.721 34.447ZM20.9744 38.3724C21.7561 38.3724 22.1904 37.5056 22.203 36.7598C22.203 36.2615 22.0005 35.7505 21.4027 35.7505C20.5852 35.7505 20.1707 36.6267 20.1575 37.3785C20.1575 37.8867 20.3601 38.3724 20.9585 38.3724M43.7942 38.5396C43.7942 38.8707 43.4981 39.0043 43.1089 39.0043C42.466 39.0043 42.2502 38.6947 42.2469 38.2613H40.224C40.1887 39.8772 41.6876 40.2765 43.0192 40.2765C44.7201 40.2765 45.8238 39.567 45.8463 38.1529C45.8463 37.0227 44.8462 36.6789 43.8619 36.4589C43.1062 36.2923 42.7748 36.1713 42.7775 35.8957C42.7814 35.6207 43.1188 35.5091 43.4502 35.5091C43.8652 35.5091 44.1476 35.6515 44.1768 36.0167H46.1419C46.1199 34.667 44.8555 34.2705 43.5691 34.2705C42.0058 34.2705 40.7871 34.9547 40.7673 36.2488C40.7673 37.2674 41.4818 37.642 42.559 37.9082C43.2504 38.0842 43.8003 38.1403 43.7942 38.5396ZM58.824 35.2863H58.7887C58.699 34.9784 58.5052 34.7109 58.2405 34.5295C57.971 34.3443 57.6478 34.2534 57.3212 34.271C56.4465 34.271 55.9126 34.689 55.4078 35.3204H55.3726L55.5597 34.447H53.5137L52.2884 40.0873H54.4274L55.0704 37.0447C55.2185 36.3819 55.5691 35.9172 56.0997 35.9172C56.6304 35.9172 56.7014 36.3264 56.5918 36.8247L55.884 40.0873H58.023L58.6665 37.0447C58.814 36.3385 59.1652 35.9172 59.6959 35.9172C60.226 35.9172 60.297 36.3044 60.188 36.8247L59.4801 40.0873H61.6186L62.3843 36.735C62.7058 35.3204 62.2137 34.2584 60.8023 34.2584C60.4106 34.2564 60.0244 34.3495 59.6766 34.5295C59.3315 34.7094 59.0386 34.9695 58.824 35.2863ZM8.39258 40.0878H10.6021L12.3096 32.1777H10.1034L8.39258 40.0878ZM15.0438 34.2798C16.5361 34.2798 17.9612 35.0663 17.9386 36.8461C17.9194 38.7931 16.5427 40.2517 14.4394 40.2517C12.9917 40.2517 11.544 39.4779 11.5704 37.7069C11.6056 35.8061 12.963 34.2798 15.0438 34.2798ZM14.5005 38.8707C15.4429 38.8707 15.7869 37.5551 15.7869 36.7812C15.7869 36.2274 15.6096 35.6856 14.9887 35.6856C14.0562 35.6856 13.7381 37.0788 13.7381 37.7965C13.7381 38.3724 13.9054 38.8707 14.5131 38.8707M13.0462 32.1783L12.7247 33.7595H31.2796L31.601 32.1777H13.0462V32.1783ZM27.9707 34.2798C29.4625 34.2798 30.8882 35.0663 30.8651 36.8461C30.8458 38.7931 29.4663 40.2517 27.3625 40.2517C25.9153 40.2517 24.4682 39.4779 24.4968 37.7069C24.5419 35.8061 25.8994 34.2804 27.9702 34.2804L27.9707 34.2798ZM27.4368 38.8707C28.3792 38.8707 28.7232 37.5551 28.7232 36.7812C28.7232 36.2274 28.5432 35.6856 27.9223 35.6856C26.9926 35.6856 26.6711 37.0788 26.6711 37.7965C26.6711 38.3724 26.8384 38.8707 27.4495 38.8707M32.3607 32.1783L32.0386 33.7595H34.1744L34.4959 32.1777H32.3601L32.3607 32.1783ZM30.6498 40.0873H32.7884L34.0137 34.447H31.8614L30.6498 40.0873ZM37.475 40.2765C37.1354 40.2999 36.7958 40.2315 36.4918 40.0785C36.1921 39.9283 35.94 39.6979 35.7636 39.413H35.7284L35.0849 42.2669H32.9205L34.6566 34.447H36.6895L36.5287 35.1994C36.743 34.9197 37.0178 34.6918 37.3324 34.5328C37.6511 34.3714 38.0013 34.2819 38.3584 34.2705C39.6454 34.2705 40.4007 35.3325 40.3786 36.713C40.3495 38.4499 39.4137 40.2765 37.4612 40.2765H37.4744H37.475ZM37.3913 35.8682C36.5645 35.8682 36.0564 36.8868 36.0432 37.67C36.0432 38.2145 36.243 38.8212 36.9218 38.8212C37.8058 38.8212 38.1696 37.6948 38.179 36.9424C38.179 36.4314 38.0249 35.8682 37.3913 35.8682ZM49.7579 39.199H49.7931L49.6065 40.0939H51.6394L52.8647 34.4536H50.7289L50.0474 37.6051C49.9093 38.258 49.4909 38.6017 48.963 38.6017C48.4357 38.6017 48.3201 38.1249 48.4263 37.6266L49.1177 34.4531H46.9819L46.2262 37.9362C45.9047 39.4531 46.6379 40.2704 47.8665 40.2704C48.251 40.2672 48.6282 40.1659 48.9625 39.9762C49.2919 39.7895 49.5663 39.5194 49.7579 39.193V39.199ZM61.2295 42.2955L61.5515 40.7132H36.1874L35.866 42.2955H61.2295Z" fill="#CDCDCD"/>
<path d="M63.5294 35.9951C63.4872 35.9915 63.4478 35.9721 63.4193 35.9407C63.4056 35.9254 63.3953 35.9074 63.3891 35.8879C63.3824 35.8685 63.3797 35.8479 63.3813 35.8274C63.4082 35.5515 63.3742 35.2731 63.2817 35.0117C63.1882 34.748 63.039 34.5075 62.8441 34.3066C62.6464 34.1025 62.4083 33.9418 62.145 33.8347C61.8802 33.7269 61.5946 33.6736 61.3072 33.6791C61.2648 33.6794 61.224 33.6632 61.1933 33.634C61.1785 33.6198 61.1668 33.6028 61.1587 33.584C61.1507 33.5652 61.1465 33.545 61.1465 33.5245C61.1465 33.4833 61.163 33.4442 61.1933 33.4151C61.224 33.3859 61.2648 33.3697 61.3072 33.37C61.3843 33.3744 61.4613 33.3744 61.5384 33.37C62.1054 33.3133 62.6362 33.0654 63.0434 32.6671C63.4422 32.2773 63.6887 31.7582 63.7386 31.203C63.7419 31.1638 63.7602 31.1273 63.7898 31.1012C63.8202 31.0749 63.8591 31.0604 63.8993 31.0605C63.9306 31.0628 63.9606 31.0741 63.9856 31.0931C64.0106 31.112 64.0296 31.1378 64.0402 31.1672C64.0468 31.1867 64.0492 31.2073 64.0474 31.2277C64.0204 31.5027 64.0546 31.781 64.147 32.0428C64.2395 32.3046 64.3881 32.545 64.5835 32.7474C64.7795 32.9509 65.0173 33.1115 65.2815 33.2193C65.5471 33.3278 65.8319 33.3811 66.1188 33.376C66.1611 33.3759 66.2019 33.3921 66.2327 33.4211C66.2475 33.4354 66.2592 33.4525 66.2673 33.4714C66.2753 33.4903 66.2795 33.5106 66.2795 33.5311C66.2793 33.5515 66.2751 33.5716 66.2671 33.5903C66.259 33.609 66.2474 33.6259 66.2327 33.64C66.202 33.6693 66.1612 33.6857 66.1188 33.6857C65.5118 33.6937 64.9279 33.9194 64.4735 34.3215C64.0285 34.7149 63.7489 35.2619 63.6907 35.8527C63.6868 35.8917 63.6683 35.9279 63.639 35.9539C63.6088 35.9806 63.5698 35.9953 63.5294 35.9951Z" fill="#CDCDCD"/>
</g>
</g>
<defs>
<clipPath id="clip0_101_17974">
<rect width="60" height="13.2" fill="white" transform="translate(8 30.9004)"/>
</clipPath>
</defs>
</svg>
