<svg width="76" height="75" viewBox="0 0 76 75" fill="none" xmlns="http://www.w3.org/2000/svg">
<g clip-path="url(#clip0_101_17920)">
<mask id="mask0_101_17920" style="mask-type:luminance" maskUnits="userSpaceOnUse" x="14" y="32" width="48" height="11">
<path d="M14 32.2207H62V42.7807H14V32.2207Z" fill="white"/>
</mask>
<g mask="url(#mask0_101_17920)">
<path fill-rule="evenodd" clip-rule="evenodd" d="M18.091 39.6127C17.7291 39.6127 17.3826 39.4735 17.1262 39.2258C17.0005 39.105 16.9004 38.9601 16.8319 38.7998C16.7634 38.6395 16.7278 38.467 16.7274 38.2927V32.2207H14V38.2927C14 40.4796 15.8317 42.2527 18.091 42.2527H21.091V39.6127H18.091ZM26.2726 34.8607C25.9508 34.8606 25.632 34.922 25.3333 35.0417C25.037 35.1601 24.7665 35.335 24.537 35.5567C24.3102 35.7758 24.1294 36.0378 24.0051 36.3276C23.8821 36.6149 23.8187 36.9242 23.8187 37.2367C23.8187 37.5492 23.8821 37.8585 24.0051 38.1458C24.1285 38.4338 24.309 38.6964 24.537 38.9167C24.7667 39.1384 25.0373 39.3133 25.3338 39.4317C25.6323 39.5513 25.951 39.6127 26.2726 39.6127C26.9195 39.6144 27.5418 39.3649 28.0083 38.9167C28.2348 38.6993 28.4152 38.4385 28.5388 38.1499C28.6623 37.8612 28.7264 37.5507 28.7274 37.2367C28.7264 36.9227 28.6623 36.6122 28.5388 36.3235C28.4152 36.0349 28.2348 35.7741 28.0083 35.5567C27.5418 35.1085 26.9195 34.859 26.2726 34.8607ZM21.091 37.2367C21.091 34.4666 23.4109 32.2207 26.2726 32.2207C29.1344 32.2207 31.4547 34.4666 31.4547 37.2367C31.4547 40.0068 29.1344 42.2527 26.2726 42.2527C23.4109 42.2527 21.091 40.0068 21.091 37.2367ZM55.7274 34.8607C55.0805 34.859 54.4582 35.1085 53.9917 35.5567C53.7652 35.7741 53.5848 36.0349 53.4612 36.3235C53.3377 36.6122 53.2736 36.9227 53.2726 37.2367C53.2735 37.5507 53.3377 37.8612 53.4612 38.1499C53.5847 38.4385 53.7651 38.6993 53.9917 38.9167C54.4582 39.3649 55.0805 39.6144 55.7274 39.6127C56.3743 39.6144 56.9965 39.3649 57.463 38.9167C57.6895 38.6993 57.8699 38.4385 57.9935 38.1499C58.117 37.8612 58.1812 37.5507 58.1821 37.2367C58.1812 36.9227 58.117 36.6122 57.9935 36.3235C57.8699 36.0349 57.6895 35.7741 57.463 35.5567C56.9965 35.1085 56.3743 34.859 55.7274 34.8607ZM50.5453 37.2367C50.5453 34.4666 52.8656 32.2207 55.7274 32.2207C58.5891 32.2207 60.909 34.4666 60.909 37.2367C60.909 40.0068 58.5891 42.2527 55.7274 42.2527C52.8656 42.2527 50.5453 40.0068 50.5453 37.2367ZM37.1821 32.2207C34.3203 32.2207 32 34.4666 32 37.2367C32 40.0068 34.3203 42.2527 37.1816 42.2527H44.8184C45.3406 42.2533 45.86 42.1773 46.3602 42.0271L47.8179 42.7807L49.3914 39.9285C49.7899 39.2062 49.9993 38.3948 50 37.5698V37.2367C50 34.4666 47.6797 32.2207 44.8179 32.2207H37.1821ZM47.2726 37.2367C47.2717 36.9227 47.2076 36.6122 47.084 36.3235C46.9605 36.0349 46.7801 35.7741 46.5536 35.5567C46.0872 35.1087 45.4651 34.8591 44.8184 34.8607H37.1816C36.8595 34.8607 36.5403 34.9221 36.2427 35.0417C35.9462 35.16 35.6756 35.335 35.4459 35.5567C35.2192 35.7758 35.0384 36.0378 34.9141 36.3276C34.7911 36.6149 34.7277 36.9242 34.7277 37.2367C34.7277 37.5492 34.7911 37.8585 34.9141 38.1458C35.0374 38.4338 35.2184 38.6964 35.4464 38.9167C35.6739 39.1375 35.9446 39.3122 36.2427 39.4317C36.5413 39.5513 36.86 39.6127 37.1816 39.6127H44.8184C45.4619 39.6144 46.0812 39.3675 46.5469 38.9234C46.7732 38.7079 46.954 38.4492 47.0786 38.1626C47.2033 37.8761 47.2693 37.5674 47.2726 37.2549V37.2367Z" fill="#CDCDCD"/>
<path d="M62.0004 32.8806C62.0004 33.0558 61.9284 33.2233 61.8007 33.3471C61.6711 33.4717 61.4981 33.541 61.3183 33.5405C61.1378 33.5405 60.9646 33.4709 60.8364 33.3471C60.7735 33.2867 60.7234 33.2143 60.6891 33.1342C60.6548 33.054 60.637 32.9678 60.6367 32.8806C60.6367 32.7054 60.7087 32.5379 60.8364 32.4141C60.966 32.2896 61.139 32.2202 61.3188 32.2207C61.4998 32.2207 61.6735 32.2903 61.8012 32.4141C61.9289 32.5379 62.0004 32.7054 62.0004 32.8806Z" fill="#CDCDCD"/>
</g>
</g>
<defs>
<clipPath id="clip0_101_17920">
<rect width="48" height="10.56" fill="white" transform="translate(14 32.2197)"/>
</clipPath>
</defs>
</svg>
