<svg width="76" height="75" viewBox="0 0 76 75" fill="none" xmlns="http://www.w3.org/2000/svg">
<path d="M24.7514 43.3971C25.0656 43.3971 25.3202 40.757 25.3202 37.5003C25.3202 34.2436 25.0656 31.6035 24.7514 31.6035C24.4373 31.6035 24.1826 34.2436 24.1826 37.5003C24.1826 40.757 24.4373 43.3971 24.7514 43.3971Z" fill="#CDCDCD"/>
<path d="M26.2635 44.0522C26.6134 44.0522 26.8971 41.1188 26.8971 37.5002C26.8971 33.8817 26.6134 30.9482 26.2635 30.9482C25.9135 30.9482 25.6299 33.8817 25.6299 37.5002C25.6299 41.1188 25.9135 44.0522 26.2635 44.0522Z" fill="#CDCDCD"/>
<path d="M27.9484 44.7862C28.3341 44.7862 28.6468 41.5239 28.6468 37.4998C28.6468 33.4756 28.3341 30.2134 27.9484 30.2134C27.5627 30.2134 27.25 33.4756 27.25 37.4998C27.25 41.5239 27.5627 44.7862 27.9484 44.7862Z" fill="#CDCDCD"/>
<path d="M29.8137 45.5928C30.2432 45.5928 30.5913 41.9696 30.5913 37.5C30.5913 33.0305 30.2432 29.4072 29.8137 29.4072C29.3843 29.4072 29.0361 33.0305 29.0361 37.5C29.0361 41.9696 29.3843 45.5928 29.8137 45.5928Z" fill="#CDCDCD"/>
<path d="M31.8874 46.4929C32.3646 46.4929 32.7514 42.4667 32.7514 37.5001C32.7514 32.5336 32.3646 28.5073 31.8874 28.5073C31.4103 28.5073 31.0234 32.5336 31.0234 37.5001C31.0234 42.4667 31.4103 46.4929 31.8874 46.4929Z" fill="#CDCDCD"/>
<path d="M34.1978 47.4935C34.7267 47.4935 35.1554 43.0192 35.1554 37.4999C35.1554 31.9807 34.7267 27.5063 34.1978 27.5063C33.669 27.5063 33.2402 31.9807 33.2402 37.4999C33.2402 43.0192 33.669 47.4935 34.1978 47.4935Z" fill="#CDCDCD"/>
<path d="M36.7609 48.6023C37.3494 48.6023 37.8265 43.6315 37.8265 37.4999C37.8265 31.3682 37.3494 26.3975 36.7609 26.3975C36.1724 26.3975 35.6953 31.3682 35.6953 37.4999C35.6953 43.6315 36.1724 48.6023 36.7609 48.6023Z" fill="#CDCDCD"/>
<path d="M39.606 49.8337C40.2621 49.8337 40.794 44.3118 40.794 37.5001C40.794 30.6885 40.2621 25.1665 39.606 25.1665C38.9498 25.1665 38.418 30.6885 38.418 37.5001C38.418 44.3118 38.9498 49.8337 39.606 49.8337Z" fill="#CDCDCD"/>
<path d="M42.7668 51.2086C43.4945 51.2086 44.0844 45.071 44.0844 37.4998C44.0844 29.9286 43.4945 23.791 42.7668 23.791C42.0391 23.791 41.4492 29.9286 41.4492 37.4998C41.4492 45.071 42.0391 51.2086 42.7668 51.2086Z" fill="#CDCDCD"/>
<path d="M46.28 52.7285C47.0871 52.7285 47.7416 45.9106 47.7416 37.5005C47.7416 29.0903 47.0871 22.2725 46.28 22.2725C45.4727 22.2725 44.8184 29.0903 44.8184 37.5005C44.8184 45.9106 45.4727 52.7285 46.28 52.7285Z" fill="#CDCDCD"/>
<path d="M50.1819 54.4201C51.0806 54.4201 51.8091 46.8447 51.8091 37.5001C51.8091 28.1554 51.0806 20.5801 50.1819 20.5801C49.2831 20.5801 48.5547 28.1554 48.5547 37.5001C48.5547 46.8447 49.2831 54.4201 50.1819 54.4201Z" fill="#CDCDCD"/>
</svg>
