<svg width="76" height="75" viewBox="0 0 76 75" fill="none" xmlns="http://www.w3.org/2000/svg">
<g clip-path="url(#clip0_101_17950)">
<mask id="mask0_101_17950" style="mask-type:luminance" maskUnits="userSpaceOnUse" x="25" y="28" width="26" height="19">
<path d="M25.625 28.0869H50.375V46.9119H25.625V28.0869Z" fill="white"/>
</mask>
<g mask="url(#mask0_101_17950)">
<path d="M50.3752 28.7752C50.3751 28.9576 50.3027 29.1324 50.1738 29.2615C50.0449 29.3907 49.8701 29.4635 49.6876 29.464C49.5972 29.4642 49.5076 29.4465 49.4241 29.4119C49.3405 29.3773 49.2646 29.3266 49.2007 29.2627C49.1368 29.1987 49.0862 29.1228 49.0517 29.0392C49.0173 28.9557 48.9997 28.8661 49 28.7757C49.0001 28.5934 49.0726 28.4185 49.2015 28.2894C49.3303 28.1603 49.5052 28.0875 49.6876 28.0869C49.778 28.0868 49.8676 28.1046 49.9511 28.1392C50.0346 28.1738 50.1105 28.2245 50.1744 28.2884C50.2383 28.3524 50.2889 28.4283 50.3234 28.5118C50.3578 28.5953 50.3755 28.6848 50.3752 28.7752Z" fill="#CDCDCD"/>
<path fill-rule="evenodd" clip-rule="evenodd" d="M31.9271 46.8169C28.4465 46.8169 25.625 43.991 25.625 40.5035V28.5459H27.9171V40.5035C27.9171 41.569 28.3394 42.591 29.0911 43.3445C29.4632 43.7175 29.9052 44.0134 30.3918 44.2153C30.8785 44.4173 31.4002 44.5212 31.9271 44.5213C34.1697 44.5213 35.9377 42.7894 35.9377 40.5982H38.2292V44.0421C38.2293 44.1941 38.2897 44.3398 38.3971 44.4474C38.5045 44.5549 38.6502 44.6156 38.8022 44.616C38.8776 44.6161 38.9522 44.6013 39.0218 44.5724C39.0915 44.5436 39.1547 44.5013 39.2079 44.448C39.2612 44.3947 39.3034 44.3314 39.3321 44.2617C39.3608 44.1921 39.3755 44.1174 39.3752 44.0421V39.9668C38.9589 40.052 38.5288 40.0433 38.1162 39.9414C37.7036 39.8396 37.3189 39.647 36.9901 39.3778C36.6608 39.1084 36.3955 38.7692 36.2135 38.3848C36.0315 38.0003 35.9373 37.5802 35.9377 37.1548V31.4154C35.9377 30.6543 36.239 29.9244 36.777 29.386C37.0428 29.1198 37.3585 28.9087 37.706 28.7646C38.0535 28.6205 38.426 28.5463 38.8022 28.5463C39.1784 28.5463 39.551 28.6205 39.8985 28.7646C40.246 28.9087 40.5616 29.1198 40.8274 29.386C41.3651 29.9246 41.6669 30.6545 41.6668 31.4154V44.0421C41.6669 44.1941 41.7273 44.3398 41.8347 44.4474C41.9421 44.5549 42.0878 44.6156 42.2398 44.616C42.3151 44.616 42.3897 44.6011 42.4592 44.5723C42.5288 44.5434 42.592 44.5011 42.6452 44.4478C42.6983 44.3945 42.7405 44.3312 42.7691 44.2616C42.7978 44.192 42.8125 44.1174 42.8123 44.0421V31.4154C42.8123 30.6543 43.1141 29.9244 43.6516 29.386C43.9174 29.1197 44.2332 28.9085 44.5808 28.7643C44.9284 28.6202 45.301 28.546 45.6773 28.546C46.0537 28.546 46.4263 28.6202 46.7739 28.7643C47.1215 28.9085 47.4373 29.1197 47.7031 29.386C48.2404 29.9248 48.5421 30.6546 48.5419 31.4154V44.0421C48.5417 44.5746 48.3934 45.0966 48.1137 45.5498C47.834 46.003 47.4339 46.3697 46.9579 46.6088C46.4822 46.8471 45.9494 46.9479 45.4195 46.9C44.8896 46.8522 44.3835 46.6574 43.9583 46.3377C43.4632 46.7109 42.8598 46.9124 42.2398 46.9116C41.6195 46.9125 41.0159 46.711 40.5207 46.3377C40.176 46.5965 39.7772 46.7741 39.3541 46.8573C38.9311 46.9404 38.4947 46.9269 38.0776 46.8179C37.6604 46.7088 37.2734 46.507 36.9452 46.2274C36.6171 45.9478 36.3563 45.5978 36.1825 45.2033C35.0119 46.2479 33.4962 46.8226 31.9271 46.8169ZM45.6773 44.616C45.602 44.6159 45.5275 44.601 45.4579 44.5721C45.3883 44.5433 45.3251 44.501 45.2719 44.4477C45.2187 44.3944 45.1765 44.3311 45.1478 44.2616C45.119 44.192 45.1043 44.1174 45.1043 44.0421V31.4154C45.1045 31.2634 45.1649 31.1177 45.2723 31.0101C45.3797 30.9025 45.5253 30.8419 45.6773 30.8415C45.7527 30.8415 45.8272 30.8563 45.8968 30.8852C45.9664 30.914 46.0295 30.9563 46.0827 31.0097C46.1359 31.063 46.178 31.1263 46.2067 31.1959C46.2354 31.2655 46.25 31.3401 46.2498 31.4154V44.0421C46.2498 44.3589 45.9932 44.616 45.6773 44.616ZM39.3752 37.1548C39.3751 37.3068 39.3147 37.4525 39.2073 37.5601C39.0999 37.6677 38.9543 37.7283 38.8022 37.7287C38.7269 37.7288 38.6522 37.714 38.5826 37.6852C38.513 37.6563 38.4497 37.6141 38.3965 37.5607C38.3433 37.5074 38.3011 37.4441 38.2724 37.3745C38.2437 37.3048 38.229 37.2302 38.2292 37.1548V31.4154C38.2293 31.2634 38.2897 31.1177 38.3971 31.0101C38.5045 30.9025 38.6502 30.8419 38.8022 30.8415C38.8776 30.8414 38.9522 30.8562 39.0218 30.885C39.0915 30.9139 39.1547 30.9562 39.2079 31.0095C39.2612 31.0628 39.3034 31.1261 39.3321 31.1957C39.3608 31.2654 39.3755 31.34 39.3752 31.4154V37.1543V37.1548Z" fill="#CDCDCD"/>
<path fill-rule="evenodd" clip-rule="evenodd" d="M29.063 40.5985C29.0629 41.3594 29.3648 42.0893 29.9024 42.6279C30.1682 42.8941 30.4839 43.1054 30.8314 43.2495C31.179 43.3937 31.5516 43.4678 31.9279 43.4678C32.3041 43.4678 32.6767 43.3937 33.0243 43.2495C33.3718 43.1054 33.6875 42.8941 33.9533 42.6279C34.4903 42.09 34.7927 41.3596 34.7927 40.5985V31.4162C34.7928 30.6554 34.4909 29.9255 33.9533 29.3869C33.6875 29.1206 33.3717 28.9094 33.0241 28.7652C32.6765 28.6211 32.3039 28.5469 31.9276 28.5469C31.5513 28.5469 31.1786 28.6211 30.831 28.7652C30.4834 28.9094 30.1677 29.1206 29.9018 29.3869C29.3643 29.9255 29.0624 30.6554 29.0625 31.4162V40.5991L29.063 40.5985ZM31.9276 41.1724C31.8523 41.1724 31.7777 41.1575 31.7081 41.1286C31.6386 41.0997 31.5754 41.0574 31.5222 41.0041C31.469 40.9508 31.4268 40.8876 31.398 40.818C31.3693 40.7484 31.3545 40.6738 31.3546 40.5985V31.4162C31.3547 31.2643 31.4151 31.1185 31.5225 31.011C31.6299 30.9034 31.7756 30.8428 31.9276 30.8423C32.0029 30.8423 32.0776 30.8571 32.1472 30.8859C32.2168 30.9147 32.2801 30.957 32.3333 31.0103C32.3865 31.0637 32.4287 31.127 32.4574 31.1966C32.4861 31.2663 32.5008 31.3409 32.5006 31.4162V40.5991C32.5006 40.9164 32.244 41.1724 31.9276 41.1724Z" fill="#CDCDCD"/>
</g>
</g>
<defs>
<clipPath id="clip0_101_17950">
<rect width="24.75" height="18.825" fill="white" transform="translate(25.625 28.0879)"/>
</clipPath>
</defs>
</svg>
