<svg width="76" height="75" viewBox="0 0 76 75" fill="none" xmlns="http://www.w3.org/2000/svg">
<g clip-path="url(#clip0_101_17964)">
<mask id="mask0_101_17964" style="mask-type:luminance" maskUnits="userSpaceOnUse" x="15" y="28" width="46" height="19">
<path d="M15.125 28.4707H60.875V46.5307H15.125V28.4707Z" fill="white"/>
</mask>
<g mask="url(#mask0_101_17964)">
<path d="M17.3073 30.3827C17.4264 29.8258 17.9893 29.3737 18.5624 29.3737H21.6788L19.0873 41.4841H15.9709C15.3972 41.4841 15.0282 41.0326 15.1474 40.4752L17.3073 30.3827ZM27.6961 30.3827C27.8153 29.8258 28.3775 29.3737 28.9506 29.3737H32.067L29.4761 41.4841H26.3597C25.7861 41.4841 25.417 41.0326 25.5368 40.4752L27.6967 30.3827H27.6961ZM48.4732 30.3827C48.5924 29.8258 49.1535 29.3737 49.7284 29.3737H52.8448L50.2527 41.4841H47.1357C46.562 41.4841 46.1942 41.0326 46.3134 40.4752L48.4732 30.3827ZM33.1061 29.3737H36.2225C36.7968 29.3737 37.1652 29.8252 37.046 30.3827L34.8861 40.4752C34.7669 41.0326 34.2047 41.4841 33.631 41.4841H30.5146L33.1061 29.3737ZM53.8838 29.3737H57.0002C57.5739 29.3737 57.9429 29.8252 57.8231 30.3827L55.6626 40.4752C55.544 41.0326 54.9824 41.4841 54.4081 41.4841H51.2917L53.8838 29.3737ZM38.0844 30.3827C38.203 29.8258 38.7646 29.3737 39.3389 29.3737H42.4559L39.8632 41.4841H36.748C36.1743 41.4841 35.8059 41.0326 35.9257 40.4752L38.0844 30.3827ZM43.4949 29.3737H46.6119C47.1856 29.3737 47.5534 29.8252 47.4342 30.3827L44.195 45.5218C44.0746 46.0786 43.513 46.5307 42.9393 46.5307H39.8223L43.4949 29.3737ZM20.9895 37.4477H25.1456L24.4972 40.4752C24.378 41.0326 23.8158 41.4841 23.2427 41.4841H20.1257L20.9895 37.4477ZM35.4929 42.4937H39.6483L38.7845 46.5307H35.6681C35.0938 46.5307 34.7254 46.0792 34.8446 45.5218L35.4929 42.4937ZM46.7721 43.4328L46.2459 45.8914C46.2231 45.9967 46.1875 46.0262 46.0786 46.0262H45.8396C45.7306 46.0262 45.7072 45.9967 45.7294 45.8914L46.2556 43.4328C46.2784 43.3275 46.3146 43.298 46.4229 43.298H46.6625C46.7709 43.298 46.7949 43.3275 46.7721 43.4328ZM47.4643 45.0913H47.415C47.3626 45.0913 47.3445 45.1058 47.3343 45.1569L47.1766 45.8914C47.1537 45.9967 47.1176 46.0262 47.0092 46.0262H46.7697C46.6613 46.0262 46.6372 45.9967 46.6595 45.8914L47.1856 43.4328C47.2085 43.3275 47.2458 43.298 47.3542 43.298H47.8478C48.4167 43.298 48.6322 43.4978 48.5274 43.9891L48.4395 44.4002C48.3342 44.8915 48.0332 45.0913 47.4643 45.0913ZM47.6088 43.8729L47.4716 44.517C47.4595 44.5676 47.4715 44.582 47.5245 44.582H47.6028C47.7864 44.582 47.8845 44.5098 47.9242 44.3238L47.979 44.0655C48.0187 43.8801 47.9519 43.8073 47.7683 43.8073H47.6901C47.6377 43.8073 47.6196 43.8217 47.6088 43.8729ZM49.3184 44.269L49.7079 44.6916C49.9114 44.9095 49.9402 45.0408 49.8879 45.284L49.874 45.3496C49.7759 45.8077 49.5417 46.0623 48.9982 46.0623C48.4564 46.0623 48.3215 45.848 48.4473 45.2617L48.463 45.1894C48.4859 45.0841 48.5214 45.0546 48.6304 45.0546H48.8844C48.9933 45.0546 49.0168 45.0841 48.9945 45.1894L48.9602 45.3496C48.9289 45.4947 48.9765 45.5531 49.1071 45.5531C49.2383 45.5531 49.31 45.4989 49.3383 45.3682L49.3527 45.2984C49.375 45.1961 49.363 45.1461 49.2504 45.0257L48.8844 44.6368C48.6797 44.4219 48.6532 44.2979 48.7056 44.0541L48.7225 43.9746C48.8212 43.5165 49.0553 43.2612 49.5977 43.2612C50.1407 43.2612 50.2749 43.4762 50.1497 44.0619L50.1341 44.1341C50.1112 44.2401 50.0751 44.269 49.9667 44.269H49.7115C49.6031 44.269 49.5791 44.2401 49.6019 44.1347L49.6362 43.9746C49.6676 43.8289 49.62 43.7711 49.4888 43.7711C49.3581 43.7711 49.2859 43.8253 49.2582 43.9566L49.245 44.018C49.2221 44.1239 49.2341 44.1745 49.319 44.269H49.3184ZM51.5108 43.4322C51.5337 43.3275 51.5698 43.298 51.6781 43.298H51.9177C52.0261 43.298 52.0502 43.3275 52.0273 43.4328L51.636 45.2629C51.5108 45.848 51.2851 46.0623 50.7421 46.0623C50.1997 46.0623 50.0655 45.848 50.1907 45.2617L50.582 43.4328C50.6054 43.3275 50.6415 43.298 50.7499 43.298H50.9895C51.0978 43.298 51.1219 43.3275 51.099 43.4328L50.6891 45.3496C50.6578 45.4947 50.709 45.5531 50.8516 45.5531C50.9895 45.5531 51.0695 45.4947 51.1009 45.3496L51.5108 43.4322ZM53.0693 44.9131C53.0705 44.9426 53.0801 44.9493 53.0994 44.9493C53.1175 44.9493 53.1307 44.942 53.1446 44.9131L53.7911 43.3931C53.823 43.316 53.8603 43.298 53.9536 43.298H54.3172C54.4256 43.298 54.4496 43.3275 54.4274 43.4328L53.9012 45.8914C53.8784 45.9967 53.841 46.0262 53.7327 46.0262H53.5611C53.4528 46.0262 53.4287 45.9967 53.451 45.8914L53.7038 44.7133C53.7104 44.6802 53.705 44.6729 53.6821 44.6729C53.6671 44.6729 53.6502 44.6802 53.6412 44.7054L53.1187 45.9064C53.0813 45.9937 53.0332 46.0256 52.9248 46.0256H52.8231C52.7105 46.0256 52.6768 45.9937 52.6768 45.9064L52.6642 44.7054C52.6618 44.6802 52.6558 44.6729 52.6371 44.6729C52.6148 44.6729 52.6052 44.6802 52.5986 44.7127L52.3463 45.8914C52.3235 45.9967 52.2879 46.0262 52.179 46.0262H52.0068C51.8985 46.0262 51.8744 45.9967 51.8973 45.8914L52.4234 43.4328C52.4463 43.3275 52.4824 43.298 52.5907 43.298H52.902C53.0326 43.298 53.0747 43.3275 53.0735 43.4545L53.0693 44.9131ZM60.8751 29.3737C60.8748 29.5231 60.8377 29.67 60.7669 29.8016C60.6961 29.9331 60.5939 30.045 60.4693 30.1275C60.3448 30.21 60.2018 30.2604 60.0531 30.2742C59.9044 30.2881 59.7546 30.2649 59.617 30.2069C59.3952 30.1152 59.2185 29.9398 59.1252 29.7187C59.069 29.5809 59.0477 29.4315 59.063 29.2836C59.0783 29.1356 59.1297 28.9937 59.2128 28.8704C59.2959 28.7471 59.4081 28.6461 59.5395 28.5764C59.6709 28.5067 59.8174 28.4704 59.9661 28.4707C60.4682 28.4707 60.8751 28.8746 60.8751 29.3737Z" fill="#CDCDCD"/>
</g>
</g>
<defs>
<clipPath id="clip0_101_17964">
<rect width="45.75" height="18.06" fill="white" transform="translate(15.125 28.4697)"/>
</clipPath>
</defs>
</svg>
