<svg width="76" height="75" viewBox="0 0 76 75" fill="none" xmlns="http://www.w3.org/2000/svg">
<g clip-path="url(#clip0_101_17988)">
<g clip-path="url(#clip1_101_17988)">
<path d="M35.9746 44.9286H37.2436V39.9006H35.9746V44.9286ZM35.9746 39.1161H37.2436V37.9206H35.9746V39.1161ZM38.0619 46.5749H39.3309V44.3601H39.3504C39.6211 44.7914 40.0599 45.0756 40.7319 45.0756C41.9634 45.0756 42.8041 44.0466 42.8041 42.4191C42.8041 40.8509 41.9919 39.7634 40.7221 39.7634C40.0689 39.7634 39.6211 40.0866 39.3129 40.5276H39.2851V39.9006H38.0611L38.0619 46.5749ZM40.4611 43.9679C39.7044 43.9679 39.3039 43.3701 39.3039 42.4581C39.3039 41.5566 39.6211 40.8411 40.4139 40.8411C41.1976 40.8411 41.5156 41.5079 41.5156 42.4581C41.5156 43.4091 41.1054 43.9679 40.4611 43.9679ZM45.3361 45.0756C46.5309 45.0756 47.3529 44.4674 47.3529 43.4586C47.3529 42.2819 46.4656 42.0471 45.6639 41.8709C44.9821 41.7231 44.3469 41.6841 44.3469 41.2529C44.3469 40.8906 44.6739 40.6941 45.1689 40.6941C45.7096 40.6941 46.0366 40.8899 46.0929 41.4291H47.2411C47.1474 40.4196 46.4469 39.7634 45.1869 39.7634C44.0956 39.7634 43.2361 40.2831 43.2361 41.3706C43.2361 42.4679 44.0761 42.7131 44.9349 42.8894C45.5881 43.0266 46.1949 43.0761 46.1949 43.5561C46.1949 43.9094 45.8776 44.1344 45.3174 44.1344C44.7481 44.1344 44.3566 43.8801 44.2719 43.3011H43.0959C43.1716 44.3699 43.9449 45.0756 45.3361 45.0756ZM52.1724 44.9286V39.9006H50.9034V42.8016C50.9034 43.4684 50.5396 43.9386 49.9419 43.9386C49.4004 43.9386 49.1484 43.6154 49.1484 43.0266V39.8999H47.8884V43.2524C47.8884 44.3496 48.4854 45.0659 49.5504 45.0659C50.2216 45.0659 50.5951 44.8011 50.9221 44.3399H50.9491V44.9286H52.1724ZM52.9944 44.9286H54.2634V42.0081C54.2634 41.3414 54.6091 40.9094 55.1221 40.9094C55.5886 40.9094 55.8601 41.2034 55.8601 41.7726V44.9286H57.1299V42.0081C57.1299 41.3414 57.4561 40.9094 57.9879 40.9094C58.4551 40.9094 58.7259 41.2034 58.7259 41.7726V44.9286H59.9956V41.5461C59.9956 40.4489 59.4256 39.7626 58.4176 39.7626C57.8109 39.7626 57.3069 40.0956 56.9799 40.6446H56.9611C56.7279 40.1151 56.2426 39.7626 55.6359 39.7626C54.9729 39.7626 54.5064 40.1151 54.2454 40.5764H54.2169V39.8999H52.9944V44.9279V44.9286ZM35.9926 36.3156H37.2631V29.3076H35.9926V36.3156ZM40.3666 36.4626C41.8509 36.4626 42.8686 35.3069 42.8686 33.8069C42.8686 32.3076 41.8509 31.1504 40.3666 31.1504C38.8824 31.1504 37.8654 32.3076 37.8654 33.8069C37.8654 35.3069 38.8824 36.4634 40.3666 36.4634V36.4626ZM40.3666 35.4441C39.5821 35.4441 39.1531 34.7871 39.1531 33.8076C39.1531 32.8266 39.5821 32.1606 40.3666 32.1606C41.1414 32.1606 41.5801 32.8266 41.5801 33.8069C41.5801 34.7871 41.1406 35.4441 40.3666 35.4441ZM45.5686 38.0316C46.2774 38.0316 46.8931 37.8554 47.2951 37.4631C47.6499 37.1196 47.8651 36.6396 47.8651 35.9346V31.2876H46.6411V31.8171H46.6231C46.3336 31.3956 45.8949 31.1504 45.2979 31.1504C44.0836 31.1504 43.2249 32.1119 43.2249 33.6111C43.2249 35.1299 44.2704 36.0126 45.3346 36.0126C45.9421 36.0126 46.3059 35.7576 46.5856 35.4246H46.6134V35.9736C46.6134 36.6591 46.2684 37.0221 45.5491 37.0221C44.9611 37.0221 44.6911 36.7769 44.5876 36.4626H43.3284C43.4589 37.4436 44.2621 38.0316 45.5686 38.0316ZM45.5499 34.9439C44.8959 34.9439 44.4669 34.4436 44.4669 33.5916C44.4669 32.7486 44.8959 32.2199 45.5401 32.2199C46.3059 32.2199 46.6794 32.8461 46.6794 33.5819C46.6794 34.3266 46.3524 34.9439 45.5499 34.9439ZM50.9499 36.4626C52.4341 36.4626 53.4519 35.3069 53.4519 33.8069C53.4519 32.3076 52.4341 31.1504 50.9506 31.1504C49.4664 31.1504 48.4486 32.3076 48.4486 33.8069C48.4486 35.3069 49.4664 36.4634 50.9506 36.4634L50.9499 36.4626ZM50.9499 35.4441C50.1669 35.4441 49.7371 34.7871 49.7371 33.8076C49.7371 32.8266 50.1669 32.1606 50.9506 32.1606C51.7254 32.1606 52.1641 32.8266 52.1641 33.8069C52.1641 34.7871 51.7254 35.4434 50.9506 35.4434L50.9499 35.4441ZM54.5649 34.3949H60.0541V33.2481H54.5649V34.3949ZM60.4561 39.0456C60.4561 38.8206 60.6309 38.6376 60.8454 38.6376H61.6239C61.8384 38.6376 62.0124 38.8206 62.0124 39.0456C62.0161 39.2676 61.8421 39.4506 61.6239 39.4544H60.8454C60.7404 39.4529 60.6406 39.4086 60.5671 39.3321C60.4944 39.2556 60.4546 39.1529 60.4561 39.0456Z" fill="#CDCDCD"/>
<path d="M23.1529 27.75C28.2814 27.75 32.4387 32.115 32.4387 37.5C32.4387 42.885 28.2814 47.25 23.1529 47.25C18.0244 47.25 13.8672 42.885 13.8672 37.5C13.8672 32.115 18.0244 27.75 23.1529 27.75ZM22.8169 28.4797C21.7579 28.6357 20.7492 29.5298 19.9662 31.0245C19.7389 31.4588 19.5342 31.9372 19.3557 32.454C20.4874 32.1607 21.6492 32.0025 22.8177 31.9823V28.479L22.8169 28.4797ZM18.5712 32.6888C18.7932 31.9575 19.0654 31.284 19.3789 30.6848C19.7667 29.9438 20.2272 29.3048 20.7462 28.8128C17.9247 29.6738 15.7002 32.0093 14.8804 34.9725C15.3477 34.4272 15.9574 33.9443 16.6632 33.537C17.2699 33.1905 17.9097 32.907 18.5719 32.6888H18.5712ZM18.3484 33.513C18.0687 34.704 17.9179 35.9227 17.8984 37.1475H14.5624C14.7109 36.0352 15.5629 34.9763 16.9857 34.1535C17.4222 33.9037 17.8782 33.69 18.3484 33.513ZM18.5697 37.1475C18.5974 35.7405 18.7902 34.4205 19.1097 33.2543C20.2204 32.919 21.4782 32.7165 22.8177 32.688V34.2098C22.3182 35.553 21.2989 36.6233 20.0194 37.1475H18.5697ZM17.8984 37.8525H14.5624C14.7109 38.9648 15.5629 40.0238 16.9857 40.8465C17.3989 41.0842 17.8549 41.2987 18.3477 41.487C18.0679 40.296 17.9179 39.0773 17.8984 37.8525ZM19.1097 41.7457C18.7902 40.5795 18.5982 39.2595 18.5697 37.8525H20.0194C21.2989 38.3767 22.3182 39.447 22.8184 40.7902V42.312C21.4782 42.2835 20.2204 42.081 19.1097 41.7465V41.7457ZM18.5712 42.3113C17.9089 42.093 17.2699 41.8095 16.6624 41.463C15.9574 41.0557 15.3477 40.572 14.8804 40.0275C15.6994 42.9908 17.9239 45.327 20.7462 46.1873C20.2272 45.6952 19.7667 45.0562 19.3789 44.3145C19.0482 43.674 18.7774 43.0035 18.5712 42.3113ZM22.8184 46.5203C21.7587 46.3643 20.7499 45.4703 19.9662 43.9755C19.7397 43.5413 19.5349 43.0628 19.3564 42.546C20.4882 42.8393 21.6499 42.9975 22.8184 43.0177V46.5203ZM25.5604 46.1873C26.0794 45.6952 26.5399 45.0562 26.9284 44.3145C27.2419 43.716 27.5142 43.0425 27.7354 42.3113C28.3977 42.093 29.0374 41.8095 29.6442 41.463C30.3499 41.0557 30.9597 40.572 31.4269 40.0275C30.6079 42.9908 28.3834 45.327 25.5604 46.1873ZM26.9509 42.5452C26.7829 43.0365 26.5789 43.515 26.3397 43.9755C25.5567 45.4703 24.5487 46.3643 23.4889 46.5203V43.017C24.6567 42.9968 25.8192 42.8385 26.9509 42.546V42.5452ZM27.9589 41.487C28.4509 41.2987 28.9077 41.0842 29.3202 40.8465C30.7437 40.0238 31.5949 38.9648 31.7442 37.8525H28.4082C28.3887 39.0773 28.2379 40.296 27.9582 41.4877L27.9589 41.487ZM27.7369 37.8525C27.7099 39.2595 27.5164 40.5795 27.1977 41.7457C26.0862 42.081 24.8284 42.2835 23.4897 42.312V40.791C23.9884 39.447 25.0084 38.3767 26.2879 37.8525H27.7369ZM28.4082 37.1475H31.7442C31.5949 36.0352 30.7437 34.9763 29.3202 34.1535C28.8837 33.9037 28.4284 33.69 27.9589 33.513C28.2267 34.6305 28.3842 35.8582 28.4082 37.1475ZM27.1977 33.2543C27.5164 34.4205 27.7099 35.7405 27.7369 37.1475H26.2879C25.0084 36.6233 23.9884 35.553 23.4889 34.209V32.688C24.8284 32.7165 26.0862 32.919 27.1977 33.2543ZM27.7354 32.6888C28.3984 32.907 29.0374 33.1905 29.6442 33.537C30.3499 33.9443 30.9597 34.428 31.4269 34.9725C30.6079 32.0093 28.3834 29.673 25.5604 28.8128C26.0794 29.3048 26.5399 29.9438 26.9284 30.6848C27.2419 31.284 27.5142 31.9575 27.7354 32.6888ZM23.4889 28.4797C24.5487 28.6357 25.5567 29.5298 26.3404 31.0245C26.5669 31.4588 26.7724 31.9372 26.9509 32.454C25.8192 32.1607 24.6567 32.0025 23.4889 31.9823V28.4797Z" fill="#CDCDCD"/>
</g>
</g>
<defs>
<clipPath id="clip0_101_17988">
<rect width="48.75" height="19.5" fill="white" transform="translate(13.625 27.75)"/>
</clipPath>
<clipPath id="clip1_101_17988">
<rect width="48.75" height="19.5" fill="white" transform="translate(13.625 27.75)"/>
</clipPath>
</defs>
</svg>
