<svg width="76" height="75" viewBox="0 0 76 75" fill="none" xmlns="http://www.w3.org/2000/svg">
<g clip-path="url(#clip0_101_17932)">
<mask id="mask0_101_17932" style="mask-type:luminance" maskUnits="userSpaceOnUse" x="7" y="31" width="62" height="13">
<path d="M7.25 31.7026H68.75V43.2976H7.25V31.7026Z" fill="white"/>
</mask>
<g mask="url(#mask0_101_17932)">
<path fill-rule="evenodd" clip-rule="evenodd" d="M15.0303 35.0901C14.5245 34.77 13.9378 34.6005 13.3391 34.6014V31.7026C14.5436 31.7026 15.7208 32.0424 16.7216 32.6795C17.7122 33.3039 18.4933 34.21 18.9646 35.2814C19.4248 36.3351 19.5459 37.5058 19.311 38.6312C19.0699 39.7667 18.4887 40.802 17.6447 41.5995C16.7799 42.4171 15.6975 42.9681 14.5273 43.1863C13.3468 43.41 12.1271 43.2954 11.009 42.8559C9.90875 42.4268 8.95861 41.6846 8.27635 40.7212C7.61065 39.7787 7.25222 38.6538 7.25 37.5001H10.2948C10.2948 38.0735 10.4729 38.6341 10.8077 39.1107C11.1488 39.5924 11.6239 39.9635 12.1741 40.178C12.7331 40.3978 13.343 40.4551 13.9332 40.3432C14.5184 40.2342 15.0597 39.9588 15.4922 39.5501C15.9142 39.1514 16.2048 38.6337 16.3253 38.066C16.4429 37.503 16.3822 36.9175 16.1518 36.3905C15.9161 35.855 15.5256 35.4021 15.0303 35.0901Z" fill="#CDCDCD"/>
<path fill-rule="evenodd" clip-rule="evenodd" d="M10.2948 31.7026C10.2948 32.0835 10.2159 32.4604 10.0628 32.8117C9.90801 33.1662 9.6837 33.4862 9.40308 33.7526C9.11726 34.0236 8.78176 34.2367 8.41502 34.3805C8.044 34.5266 7.64877 34.6015 7.25 34.6014V37.5001C8.0495 37.5001 8.84146 37.35 9.58004 37.0589C10.3135 36.7709 10.9843 36.3439 11.5556 35.8015C12.1169 35.269 12.5657 34.6295 12.8755 33.9208C13.1807 33.221 13.3385 32.466 13.3391 31.7026H10.2948Z" fill="#CDCDCD"/>
<path d="M45.4951 35.8916H44.0179V40.3591H45.4951V35.8916ZM44.1821 35.055C44.3365 35.2023 44.5297 35.2753 44.7612 35.2753C44.9932 35.2753 45.183 35.2023 45.3309 35.055C45.4029 34.9826 45.4596 34.8965 45.4978 34.8018C45.5359 34.7071 45.5547 34.6057 45.5531 34.5037C45.5531 34.2834 45.4794 34.099 45.3309 33.9523C45.183 33.8051 44.9932 33.7314 44.7612 33.7314C44.5291 33.7314 44.3365 33.8051 44.1821 33.9518C44.1092 34.0236 44.0519 34.1097 44.0137 34.2047C43.9755 34.2996 43.9572 34.4014 43.9599 34.5037C43.9599 34.7182 44.0342 34.902 44.1821 35.055ZM22.8242 40.3591V33.8694H24.3403V39.0907H27.3625V40.3591H22.8242Z" fill="#CDCDCD"/>
<path fill-rule="evenodd" clip-rule="evenodd" d="M30.0925 40.4605C29.6103 40.4605 29.1723 40.359 28.7801 40.1573C28.4058 39.9598 28.0896 39.668 27.8628 39.3109C27.637 38.9538 27.5196 38.539 27.5246 38.1166C27.5246 37.6748 27.6371 37.28 27.8628 36.9304C28.0904 36.579 28.4065 36.2936 28.7795 36.1031C29.1659 35.8944 29.6034 35.79 30.0931 35.79C30.5822 35.79 31.0196 35.8915 31.406 36.0938C31.7924 36.2962 32.0982 36.575 32.3227 36.9304C32.549 37.28 32.661 37.6748 32.661 38.116C32.661 38.5572 32.5484 38.9561 32.3233 39.3114C32.0965 39.6684 31.7803 39.96 31.406 40.1573C31.0196 40.359 30.5816 40.4605 30.0925 40.4605ZM30.0925 39.1827C30.3054 39.1827 30.4922 39.1398 30.6529 39.054C30.8137 38.9619 30.9361 38.8366 31.0196 38.6772C31.1115 38.5046 31.1581 38.3115 31.1548 38.116C31.1548 37.9079 31.1101 37.7276 31.0196 37.5739C30.9324 37.4175 30.8016 37.2898 30.6431 37.2064C30.4758 37.1111 30.2856 37.0634 30.0931 37.0684C29.8871 37.0684 29.7038 37.1148 29.5425 37.2064C29.3818 37.2922 29.2564 37.4151 29.1659 37.5739C29.0734 37.7428 29.0268 37.9328 29.0307 38.1253C29.0307 38.3282 29.076 38.5114 29.1659 38.6772C29.2559 38.836 29.3818 38.9619 29.543 39.054C29.7038 39.1398 29.8865 39.1827 30.0925 39.1827ZM33.8312 42.1058C34.224 42.2774 34.6777 42.3632 35.1923 42.3632C35.6948 42.3632 36.1421 42.2682 36.5343 42.0786C36.9271 41.8884 37.2363 41.6246 37.4615 41.2878C37.6866 40.951 37.7997 40.5521 37.7997 40.0929V35.8915H36.351V36.1918C36.2392 36.1031 36.1158 36.0299 35.9843 35.9744C35.7331 35.8584 35.447 35.7999 35.125 35.7999C34.694 35.7999 34.3105 35.8979 33.9763 36.0938C33.645 36.2803 33.3711 36.5537 33.1843 36.8846C32.9911 37.2151 32.8942 37.589 32.8942 38.0058C32.8942 38.4163 32.9911 38.7902 33.1843 39.1277C33.3724 39.4598 33.6455 39.7359 33.9757 39.9277C34.3105 40.1231 34.6934 40.2211 35.1245 40.2211C35.4401 40.2211 35.7267 40.1631 35.9843 40.0471C36.104 39.9933 36.2173 39.9262 36.322 39.8471V40.1295C36.322 40.4425 36.2158 40.6843 36.0034 40.8559C35.7975 41.0275 35.5109 41.1133 35.1448 41.1133C34.8483 41.1133 34.5936 41.064 34.3812 40.966C34.1671 40.8617 33.9766 40.7147 33.8214 40.5341L32.9139 41.398C33.1391 41.7046 33.4454 41.9406 33.8312 42.1058ZM35.9361 38.8424C35.7882 38.9282 35.6112 38.9711 35.4047 38.9711C35.2164 38.9753 35.0301 38.931 34.864 38.8424C34.7187 38.7593 34.5986 38.6385 34.5164 38.4928C34.4339 38.3438 34.3908 38.1762 34.3911 38.0058C34.3911 37.8221 34.4329 37.6568 34.5164 37.5096C34.6005 37.3623 34.7195 37.2458 34.8738 37.16C35.0281 37.0742 35.2057 37.0313 35.4047 37.0313C35.6107 37.0313 35.7876 37.0742 35.9361 37.16C36.0905 37.2458 36.2065 37.3629 36.2837 37.5096C36.3672 37.6568 36.409 37.8221 36.409 38.0058C36.409 38.1896 36.3672 38.3554 36.2837 38.5021C36.2028 38.6466 36.0825 38.7648 35.9361 38.8424ZM40.9084 40.4605C40.4256 40.4605 39.9876 40.359 39.5954 40.1573C39.221 39.9598 38.9048 39.6681 38.6781 39.3109C38.4523 38.9538 38.3348 38.539 38.3399 38.1166C38.3399 37.6748 38.4524 37.28 38.6781 36.9304C38.9056 36.5789 39.2218 36.2936 39.5948 36.1031C39.9812 35.8944 40.4187 35.79 40.9084 35.79C41.3975 35.79 41.8349 35.8915 42.2213 36.0938C42.6077 36.2962 42.9129 36.575 43.138 36.9304C43.3637 37.28 43.4763 37.6748 43.4763 38.116C43.4763 38.5572 43.3637 38.9561 43.1386 39.3114C42.9118 39.6684 42.5956 39.96 42.2213 40.1573C41.8349 40.359 41.3975 40.4605 40.9084 40.4605ZM40.9084 39.1827C41.1207 39.1827 41.307 39.1398 41.4682 39.054C41.629 38.9619 41.7514 38.8366 41.8349 38.6772C41.9268 38.5046 41.9734 38.3115 41.9701 38.116C41.9701 37.9079 41.9254 37.7276 41.8349 37.5739C41.7478 37.4175 41.6169 37.2898 41.4584 37.2064C41.2911 37.1111 41.1009 37.0634 40.9084 37.0684C40.7024 37.0684 40.5185 37.1148 40.3578 37.2064C40.1965 37.2922 40.0711 37.4151 39.9812 37.5739C39.8887 37.7428 39.8421 37.9328 39.846 38.1253C39.846 38.3282 39.8913 38.5114 39.9812 38.6772C40.0699 38.835 40.2004 38.9654 40.3583 39.054C40.5185 39.1398 40.7024 39.1827 40.9084 39.1827ZM49.0467 40.4506C48.748 40.4542 48.4518 40.395 48.1775 40.2767C48.0439 40.2185 47.9175 40.1447 47.801 40.057V42.2438H46.3436V35.8915H47.8207V36.1999C47.9281 36.1164 48.047 36.0445 48.1781 35.9837C48.4508 35.8593 48.7475 35.7965 49.0472 35.7999C49.4911 35.7999 49.8839 35.9008 50.225 36.1031C50.5666 36.2989 50.8473 36.5852 51.0361 36.9304C51.2357 37.28 51.3355 37.6783 51.3355 38.1253C51.3355 38.5728 51.2357 38.9717 51.0361 39.3207C50.8472 39.6659 50.5665 39.9522 50.225 40.148C49.8839 40.3498 49.4911 40.4512 49.0472 40.4512L49.0467 40.4506ZM48.7763 39.1827C48.9886 39.1827 49.172 39.1364 49.3263 39.0448C49.4876 38.9526 49.6129 38.8273 49.7034 38.6679C49.7934 38.5085 49.838 38.3276 49.838 38.1253C49.842 37.9328 49.7954 37.7428 49.7029 37.5739C49.6157 37.4175 49.4849 37.2898 49.3263 37.2064C49.1621 37.1118 48.9751 37.0641 48.7856 37.0684C48.5802 37.0684 48.3969 37.1148 48.2356 37.2064C48.0812 37.292 47.9541 37.4194 47.8689 37.5739C47.7764 37.7428 47.7298 37.9328 47.7337 38.1253C47.7337 38.3282 47.7755 38.5085 47.859 38.6679C47.9489 38.8273 48.0743 38.9526 48.2361 39.0448C48.3963 39.1369 48.5767 39.1827 48.7763 39.1827Z" fill="#CDCDCD"/>
<path d="M52.7799 40.3689C53.0502 40.4367 53.3235 40.4704 53.6002 40.4704C54.1862 40.4704 54.6492 40.3417 54.9904 40.0842C55.3385 39.8268 55.512 39.4801 55.512 39.0453C55.512 38.7636 55.4574 38.5369 55.3478 38.3653C55.2428 38.1917 55.097 38.0465 54.9231 37.9421C54.7498 37.8382 54.5651 37.7549 54.3725 37.6939C54.1908 37.6361 54.0074 37.5838 53.8225 37.5374C53.6758 37.5042 53.5331 37.455 53.3972 37.3907C53.2881 37.3357 53.2336 37.262 53.2336 37.1704C53.2336 37.084 53.2753 37.0197 53.3589 36.9768C53.4424 36.9281 53.5678 36.9032 53.7354 36.9032C53.9095 36.9032 54.0859 36.9374 54.2663 37.0046C54.4531 37.0719 54.6202 37.1884 54.7682 37.3536L55.6083 36.5449C55.388 36.2817 55.1017 36.0818 54.7786 35.9657C54.4281 35.8278 54.0541 35.7591 53.6774 35.7634C53.298 35.7634 52.9661 35.8248 52.683 35.9472C52.3998 36.0701 52.1805 36.2388 52.0262 36.4527C51.8719 36.6614 51.7947 36.9095 51.7947 37.1977C51.7947 37.4673 51.8492 37.6905 51.9589 37.8684C52.068 38.04 52.2101 38.1751 52.3836 38.2731C52.5576 38.3717 52.741 38.4476 52.9342 38.5027C53.1268 38.5583 53.3107 38.6099 53.4842 38.6592C53.6583 38.7021 53.7998 38.7543 53.9095 38.8158C54.0255 38.8708 54.0835 38.9532 54.0835 39.0639C54.0835 39.1497 54.0348 39.2169 53.9385 39.2662C53.848 39.3149 53.7163 39.3393 53.5422 39.3393C53.291 39.3393 53.0595 39.2964 52.8472 39.2106C52.6404 39.1227 52.4533 38.9946 52.2966 38.8337L51.457 39.6431C51.6177 39.8083 51.8109 39.9555 52.0361 40.0837C52.2681 40.2066 52.5159 40.3017 52.7799 40.3689ZM58.2058 40.4611C57.7747 40.4611 57.3918 40.3782 57.057 40.213C56.7417 40.053 56.475 39.8116 56.2848 39.5138C56.0974 39.214 56.0045 38.8702 56.0045 38.4847V35.8921H57.4817V38.4662C57.4817 38.6192 57.5072 38.7514 57.5589 38.8616C57.6169 38.9717 57.7004 39.0575 57.8101 39.119C57.9198 39.1798 58.0515 39.2106 58.2058 39.2106C58.4245 39.2106 58.5986 39.1468 58.7274 39.0175C58.8562 38.883 58.92 38.6986 58.92 38.4662V35.8921H60.3972V38.4754C60.3972 38.8674 60.3043 39.214 60.1175 39.5138C59.9271 39.8117 59.6602 40.0531 59.3447 40.213C59.0169 40.3782 58.6369 40.4611 58.2058 40.4611ZM62.6088 35.8921H61.1317V40.3596H62.6088V37.7496C62.6088 37.5965 62.6413 37.4678 62.7057 37.3635C62.7756 37.2601 62.8723 37.1775 62.9854 37.1246C63.1014 37.0632 63.2337 37.0324 63.3816 37.0324C63.594 37.0324 63.7704 37.0968 63.9125 37.2255C64.0605 37.3484 64.1347 37.5229 64.1347 37.7496V40.3602H65.6119V37.7496C65.6119 37.5965 65.6438 37.4678 65.7082 37.3635C65.7782 37.26 65.8751 37.1774 65.9884 37.1246C66.1106 37.0616 66.2466 37.0299 66.3841 37.0324C66.5965 37.0324 66.7734 37.0968 66.915 37.2255C67.0629 37.3484 67.1372 37.5229 67.1372 37.7496V40.3602H68.6144V37.5931C68.6144 37.2191 68.5308 36.9003 68.3637 36.6365C68.2064 36.3706 67.9747 36.1566 67.6971 36.0208C67.4203 35.8735 67.1018 35.8005 66.7415 35.8005C66.3743 35.8005 66.043 35.877 65.7471 36.0301C65.5578 36.1253 65.3869 36.2533 65.2423 36.4081C65.1066 36.2452 64.9402 36.1105 64.7526 36.0115C64.495 35.8706 64.202 35.8005 63.8742 35.8005C63.5261 35.8005 63.214 35.8706 62.9372 36.0115C62.8197 36.0684 62.7094 36.1393 62.6088 36.2225V35.8921Z" fill="#CDCDCD"/>
</g>
</g>
<defs>
<clipPath id="clip0_101_17932">
<rect width="61.5" height="11.595" fill="white" transform="translate(7.25 31.7026)"/>
</clipPath>
</defs>
</svg>
