<svg width="76" height="75" viewBox="0 0 76 75" fill="none" xmlns="http://www.w3.org/2000/svg">
<g clip-path="url(#clip0_101_17908)">
<mask id="mask0_101_17908" style="mask-type:luminance" maskUnits="userSpaceOnUse" x="6" y="31" width="64" height="13">
<path d="M6.5 31.5293H69.5V43.4693H6.5V31.5293Z" fill="white"/>
</mask>
<g mask="url(#mask0_101_17908)">
<path d="M12.2283 43.4693C15.3914 43.4693 17.9553 40.7964 17.9553 37.4993V33.3203C17.9553 32.8454 17.7745 32.3895 17.4519 32.0541C17.2954 31.8891 17.107 31.7576 16.8982 31.6674C16.6894 31.5771 16.4645 31.5302 16.237 31.5293H12.5145V34.1485C12.5145 34.7455 12.5493 35.3653 12.8502 35.8738C13.0628 36.2355 13.3506 36.5473 13.6942 36.7883C14.0326 37.0257 14.4196 37.1851 14.8271 37.2551L14.9368 37.2735C14.9819 37.2898 15.021 37.3197 15.0492 37.3604C15.0772 37.4013 15.0923 37.4497 15.0923 37.4993C15.0923 37.5489 15.0772 37.5973 15.0492 37.6382C15.0218 37.6783 14.9825 37.7087 14.9368 37.7251L14.8271 37.7435C14.2298 37.8473 13.6818 38.1403 13.264 38.5793C12.8365 39.0278 12.5568 39.5964 12.4624 40.2086L12.445 40.3226C12.4299 40.3693 12.4007 40.4103 12.3614 40.4398C12.3229 40.4684 12.2763 40.4839 12.2283 40.4839C12.1804 40.4839 12.1337 40.4684 12.0953 40.4398C12.0559 40.4105 12.0265 40.3697 12.0111 40.3231L11.9937 40.2086C11.9283 39.7881 11.7759 39.3859 11.5462 39.0276C11.3202 38.6748 11.0208 38.3748 10.6685 38.1479C10.1803 37.8342 9.58667 37.7978 9.01315 37.7978H6.50781C6.65717 40.9565 9.16142 43.4693 12.2283 43.4693Z" fill="#CDCDCD"/>
<path d="M6.50001 37.2008H9.0124C9.58592 37.2008 10.1801 37.1644 10.6678 36.8507C11.0522 36.6026 11.3732 36.2681 11.6052 35.8738C11.9061 35.3648 11.9408 34.746 11.9408 34.148V31.5293H8.21839C7.76218 31.5293 7.32553 31.7182 7.00346 32.0541C6.67892 32.3958 6.49861 32.8492 6.50001 33.3203V37.2008ZM19.8028 32.1263C19.8028 32.2848 19.743 32.4367 19.6355 32.5485C19.5833 32.6035 19.5205 32.6474 19.4508 32.6774C19.3812 32.7074 19.3062 32.723 19.2304 32.7233C19.0783 32.7233 18.9327 32.6603 18.8252 32.5485C18.717 32.4346 18.6569 32.2834 18.6574 32.1263C18.6574 31.9678 18.7177 31.8159 18.8257 31.7041C18.8778 31.6491 18.9405 31.6052 19.0101 31.5752C19.0796 31.5451 19.1546 31.5295 19.2304 31.5293C19.3824 31.5293 19.528 31.5923 19.6355 31.7041C19.7425 31.8159 19.8028 31.9678 19.8028 32.1263ZM67.1261 35.1422C68.7272 35.1422 69.5 36.308 69.5 37.6583V40.1939H67.8245V37.959C67.8245 37.3473 67.6106 36.8421 66.9963 36.8421C66.3821 36.8421 66.1773 37.3468 66.1773 37.959V40.1934H64.5013V37.959C64.5013 37.3473 64.2965 36.8421 63.6823 36.8421C63.068 36.8421 62.8541 37.3468 62.8541 37.959V40.1934H61.1786V37.6578C61.1786 36.3075 61.9509 35.1422 63.5519 35.1422C64.4269 35.1422 65.0601 35.5015 65.3485 36.0942C65.6554 35.5015 66.3261 35.1422 67.1261 35.1422ZM58.1676 38.6396C58.7075 38.6396 58.9404 38.1245 58.9404 37.5123V35.336H60.6154V37.7262C60.6154 39.1541 59.8154 40.3394 58.1676 40.3394C56.5198 40.3394 55.7198 39.1546 55.7198 37.7262V35.3365H57.3953V37.5129C57.3953 38.1245 57.6278 38.6396 58.1676 38.6396ZM53.2558 40.3492C52.2043 40.3492 51.5249 39.9703 51.1241 39.2322L52.3347 38.5229C52.502 38.8339 52.7529 38.9891 53.1721 38.9891C53.5165 38.9891 53.6745 38.8626 53.6745 38.7069C53.6745 38.1153 51.2175 38.7172 51.2175 36.8328C51.2175 35.9194 51.9616 35.1813 53.2281 35.1813C54.336 35.1813 54.9405 35.7447 55.2104 36.2885L54.0004 37.0076C53.8983 36.7161 53.5816 36.5408 53.265 36.5408C53.0233 36.5408 52.893 36.6478 52.893 36.7938C52.893 37.3962 55.35 36.8426 55.35 38.6683C55.35 39.6887 54.3914 40.3492 53.2558 40.3492ZM47.4022 42.4278H45.7267V37.7549C45.7267 36.2689 46.7967 35.1905 48.2864 35.1905C49.7386 35.1905 50.846 36.3465 50.846 37.7555C50.846 39.3098 49.8592 40.3394 48.3798 40.3394C48.036 40.3342 47.6993 40.2406 47.4022 40.0675V42.4283V42.4278ZM48.2864 38.6976C48.817 38.6976 49.1706 38.2705 49.1706 37.7647C49.1706 37.2502 48.8175 36.8323 48.2864 36.8323C47.7558 36.8323 47.4022 37.2502 47.4022 37.7658C47.4022 38.2705 47.7558 38.6976 48.2864 38.6976ZM44.0486 34.8215C43.4989 34.8215 43.0433 34.3455 43.0433 33.7724C43.0433 33.1993 43.4995 32.7233 44.048 32.7233C44.5976 32.7233 45.0538 33.1993 45.0538 33.7724C45.0538 34.3455 44.5982 34.8215 44.0486 34.8215ZM43.2105 35.3365H44.886V40.1939H43.2105V35.3365ZM39.9959 40.3394C38.5437 40.3394 37.4363 39.1736 37.4363 37.7555C37.4363 36.3465 38.5442 35.1813 39.9959 35.1813C41.4482 35.1813 42.5556 36.3465 42.5556 37.7555C42.5556 39.1742 41.4476 40.3394 39.9959 40.3394ZM39.9959 38.6976C40.5265 38.6976 40.8801 38.2705 40.8801 37.7647C40.8801 37.2502 40.5271 36.8231 39.9959 36.8231C39.4653 36.8231 39.1117 37.2502 39.1117 37.7652C39.1117 38.27 39.4653 38.6976 39.9959 38.6976ZM34.2727 42.5738C33.1186 42.5738 32.2806 42.0392 31.8526 41.0873L33.2392 40.3101C33.388 40.6411 33.6671 40.9809 34.2439 40.9809C34.8495 40.9809 35.2497 40.582 35.2964 39.883C35.0732 40.087 34.7191 40.2422 34.1885 40.2422C32.8948 40.2422 31.8521 39.2029 31.8521 37.7457C31.8521 36.3373 32.96 35.1905 34.4123 35.1905C35.9015 35.1905 36.9719 36.2689 36.9719 37.7555V39.6789C36.9719 41.4276 35.808 42.5738 34.2727 42.5738ZM34.384 38.601C34.8864 38.601 35.2682 38.2412 35.2682 37.7066C35.2682 37.1823 34.8869 36.8328 34.384 36.8328C33.8909 36.8328 33.4999 37.1823 33.4999 37.7066C33.4999 38.2412 33.8909 38.601 34.384 38.601ZM29.01 40.3394C27.5578 40.3394 26.4498 39.1736 26.4498 37.7555C26.4498 36.3465 27.5578 35.1813 29.01 35.1813C30.4623 35.1813 31.5702 36.3465 31.5702 37.7555C31.5702 39.1742 30.4623 40.3394 29.01 40.3394ZM29.01 38.6976C29.5406 38.6976 29.8942 38.2705 29.8942 37.7647C29.8942 37.2502 29.5412 36.8231 29.01 36.8231C28.4794 36.8231 28.1258 37.2502 28.1258 37.7652C28.1258 38.27 28.4794 38.6976 29.01 38.6976ZM23.3992 33.6367V38.5424H26.1734V40.1939H23.1662C22.1055 40.1939 21.677 39.611 21.677 38.6879V33.6367H23.3992Z" fill="#CDCDCD"/>
</g>
</g>
<defs>
<clipPath id="clip0_101_17908">
<rect width="63" height="11.94" fill="white" transform="translate(6.5 31.5303)"/>
</clipPath>
</defs>
</svg>
