<svg width="1441" height="216" viewBox="0 0 1441 216" fill="none" xmlns="http://www.w3.org/2000/svg">
<g clip-path="url(#clip0_84_10031)">
<path d="M-891.919 94.75V23.8409H-866.644C-861.127 23.8409 -856.557 24.845 -852.933 26.8532C-849.309 28.8613 -846.597 31.6081 -844.797 35.0936C-842.996 38.5559 -842.096 42.4569 -842.096 46.7963C-842.096 51.1589 -843.008 55.0829 -844.831 58.5684C-846.632 62.0307 -849.355 64.7775 -853.002 66.8088C-856.626 68.8169 -861.185 69.821 -866.679 69.821H-884.06V60.7496H-867.648C-864.163 60.7496 -861.335 60.1495 -859.165 58.9492C-856.996 57.7259 -855.403 56.0639 -854.387 53.9634C-853.372 51.8629 -852.864 49.4739 -852.864 46.7963C-852.864 44.1188 -853.372 41.7413 -854.387 39.6639C-855.403 37.5865 -857.007 35.9592 -859.2 34.782C-861.37 33.6048 -864.232 33.0162 -867.787 33.0162H-881.221V94.75H-891.919ZM-833.454 94.75V23.8409H-808.178C-802.685 23.8409 -798.126 24.7873 -794.502 26.68C-790.855 28.5728 -788.131 31.1926 -786.331 34.5396C-784.53 37.8635 -783.63 41.7067 -783.63 46.0692C-783.63 50.4087 -784.542 54.2289 -786.365 57.5297C-788.166 60.8074 -790.89 63.358 -794.537 65.1815C-798.161 67.005 -802.719 67.9167 -808.213 67.9167H-827.36V58.7069H-809.182C-805.72 58.7069 -802.904 58.2106 -800.734 57.218C-798.541 56.2255 -796.937 54.7828 -795.922 52.8901C-794.906 50.9973 -794.398 48.7237 -794.398 46.0692C-794.398 43.3917 -794.918 41.0719 -795.956 39.1099C-796.972 37.1479 -798.576 35.6475 -800.769 34.6088C-802.939 33.5471 -805.789 33.0162 -809.321 33.0162H-822.755V94.75H-833.454ZM-798.449 62.7578L-780.93 94.75H-793.117L-810.29 62.7578H-798.449ZM-774.512 94.75V23.8409H-730.055V33.0508H-763.813V54.6559H-732.375V63.8311H-763.813V85.5401H-729.64V94.75H-774.512ZM-719.664 23.8409H-706.68L-684.106 78.9616H-683.275L-660.7 23.8409H-647.716V94.75H-657.896V43.4379H-658.554L-679.466 94.6461H-687.914L-708.827 43.4032H-709.485V94.75H-719.664V23.8409ZM-625.363 23.8409V94.75H-636.062V23.8409H-625.363ZM-568.083 23.8409H-557.35V70.4789C-557.35 75.4416 -558.516 79.8388 -560.847 83.6705C-563.178 87.479 -566.456 90.4798 -570.68 92.6726C-574.904 94.8423 -579.855 95.9272 -585.534 95.9272C-591.189 95.9272 -596.128 94.8423 -600.352 92.6726C-604.576 90.4798 -607.854 87.479 -610.185 83.6705C-612.517 79.8388 -613.682 75.4416 -613.682 70.4789V23.8409H-602.984V69.6133C-602.984 72.8217 -602.28 75.6724 -600.872 78.1653C-599.441 80.6582 -597.421 82.6202 -594.813 84.0513C-592.204 85.4593 -589.111 86.1634 -585.534 86.1634C-581.933 86.1634 -578.828 85.4593 -576.22 84.0513C-573.588 82.6202 -571.58 80.6582 -570.195 78.1653C-568.787 75.6724 -568.083 72.8217 -568.083 69.6133V23.8409ZM-545.695 23.8409H-532.711L-510.137 78.9616H-509.306L-486.731 23.8409H-473.747V94.75H-483.927V43.4379H-484.585L-505.497 94.6461H-513.945L-534.858 43.4032H-535.516V94.75H-545.695V23.8409ZM-381.295 46.9002H-392.097C-392.513 44.592 -393.286 42.5607 -394.417 40.8065C-395.548 39.0522 -396.933 37.5634 -398.572 36.34C-400.211 35.1167 -402.046 34.1934 -404.077 33.5701C-406.085 32.9469 -408.221 32.6353 -410.483 32.6353C-414.568 32.6353 -418.227 33.6625 -421.458 35.7168C-424.667 37.7711 -427.206 40.7834 -429.075 44.7535C-430.922 48.7237 -431.845 53.571 -431.845 59.2955C-431.845 65.066 -430.922 69.9364 -429.075 73.9066C-427.206 77.8768 -424.655 80.8775 -421.424 82.9087C-418.192 84.94 -414.557 85.9556 -410.517 85.9556C-408.278 85.9556 -406.155 85.6555 -404.146 85.0554C-402.115 84.4322 -400.28 83.5204 -398.641 82.3201C-397.002 81.1199 -395.618 79.6541 -394.486 77.9229C-393.332 76.1687 -392.536 74.1605 -392.097 71.8984L-381.295 71.9331C-381.872 75.4185 -382.991 78.627 -384.653 81.5584C-386.292 84.4668 -388.404 86.9828 -390.99 89.1064C-393.552 91.2069 -396.483 92.8342 -399.784 93.9883C-403.085 95.1424 -406.686 95.7195 -410.586 95.7195C-416.726 95.7195 -422.197 94.2653 -426.998 91.3569C-431.799 88.4254 -435.585 84.236 -438.355 78.7885C-441.101 73.3411 -442.475 66.8434 -442.475 59.2955C-442.475 51.7244 -441.09 45.2267 -438.32 39.8024C-435.55 34.3549 -431.765 30.177 -426.963 27.2686C-422.162 24.3372 -416.703 22.8714 -410.586 22.8714C-406.824 22.8714 -403.316 23.4139 -400.061 24.4988C-396.783 25.5605 -393.84 27.1301 -391.232 29.2076C-388.624 31.2619 -386.465 33.7779 -384.757 36.7555C-383.049 39.71 -381.895 43.0916 -381.295 46.9002ZM-310.797 59.2955C-310.797 66.8665 -312.182 73.3757 -314.952 78.8232C-317.722 84.2475 -321.519 88.4254 -326.343 91.3569C-331.145 94.2653 -336.604 95.7195 -342.72 95.7195C-348.86 95.7195 -354.342 94.2653 -359.167 91.3569C-363.968 88.4254 -367.753 84.236 -370.523 78.7885C-373.293 73.3411 -374.678 66.8434 -374.678 59.2955C-374.678 51.7244 -373.293 45.2267 -370.523 39.8024C-367.753 34.3549 -363.968 30.177 -359.167 27.2686C-354.342 24.3372 -348.86 22.8714 -342.72 22.8714C-336.604 22.8714 -331.145 24.3372 -326.343 27.2686C-321.519 30.177 -317.722 34.3549 -314.952 39.8024C-312.182 45.2267 -310.797 51.7244 -310.797 59.2955ZM-321.392 59.2955C-321.392 53.5249 -322.327 48.666 -324.197 44.7189C-326.043 40.7488 -328.582 37.748 -331.814 35.7168C-335.022 33.6625 -338.658 32.6353 -342.72 32.6353C-346.806 32.6353 -350.453 33.6625 -353.661 35.7168C-356.87 37.748 -359.409 40.7488 -361.279 44.7189C-363.125 48.666 -364.049 53.5249 -364.049 59.2955C-364.049 65.066 -363.125 69.9364 -361.279 73.9066C-359.409 77.8537 -356.87 80.8544 -353.661 82.9087C-350.453 84.94 -346.806 85.9556 -342.72 85.9556C-338.658 85.9556 -335.022 84.94 -331.814 82.9087C-328.582 80.8544 -326.043 77.8537 -324.197 73.9066C-322.327 69.9364 -321.392 65.066 -321.392 59.2955ZM-255.759 23.8409H-245.026V70.4789C-245.026 75.4416 -246.192 79.8388 -248.523 83.6705C-250.854 87.479 -254.132 90.4798 -258.356 92.6726C-262.58 94.8423 -267.532 95.9272 -273.21 95.9272C-278.865 95.9272 -283.805 94.8423 -288.029 92.6726C-292.253 90.4798 -295.53 87.479 -297.862 83.6705C-300.193 79.8388 -301.359 75.4416 -301.359 70.4789V23.8409H-290.66V69.6133C-290.66 72.8217 -289.956 75.6724 -288.548 78.1653C-287.117 80.6582 -285.097 82.6202 -282.489 84.0513C-279.881 85.4593 -276.788 86.1634 -273.21 86.1634C-269.609 86.1634 -266.504 85.4593 -263.896 84.0513C-261.265 82.6202 -259.256 80.6582 -257.872 78.1653C-256.463 75.6724 -255.759 72.8217 -255.759 69.6133V23.8409ZM-233.372 94.75V23.8409H-208.096C-202.603 23.8409 -198.044 24.7873 -194.42 26.68C-190.773 28.5728 -188.049 31.1926 -186.249 34.5396C-184.448 37.8635 -183.548 41.7067 -183.548 46.0692C-183.548 50.4087 -184.46 54.2289 -186.283 57.5297C-188.084 60.8074 -190.808 63.358 -194.455 65.1815C-198.079 67.005 -202.637 67.9167 -208.131 67.9167H-227.278V58.7069H-209.1C-205.638 58.7069 -202.822 58.2106 -200.652 57.218C-198.459 56.2255 -196.855 54.7828 -195.84 52.8901C-194.824 50.9973 -194.316 48.7237 -194.316 46.0692C-194.316 43.3917 -194.836 41.0719 -195.874 39.1099C-196.89 37.1479 -198.494 35.6475 -200.687 34.6088C-202.857 33.5471 -205.707 33.0162 -209.239 33.0162H-222.673V94.75H-233.372ZM-198.367 62.7578L-180.848 94.75H-193.035L-210.208 62.7578H-198.367ZM-135.755 42.4684C-136.125 39.1907 -137.648 36.6516 -140.326 34.8512C-143.003 33.0277 -146.373 32.1159 -150.436 32.1159C-153.344 32.1159 -155.86 32.5776 -157.984 33.5009C-160.107 34.4011 -161.757 35.6475 -162.935 37.2402C-164.089 38.8098 -164.666 40.5987 -164.666 42.6069C-164.666 44.2919 -164.273 45.7461 -163.489 46.9695C-162.681 48.1928 -161.631 49.22 -160.338 50.051C-159.022 50.8588 -157.614 51.5398 -156.114 52.0938C-154.613 52.6246 -153.171 53.0632 -151.786 53.4094L-144.861 55.2099C-142.599 55.7638 -140.279 56.514 -137.902 57.4604C-135.524 58.4068 -133.32 59.6532 -131.289 61.1998C-129.257 62.7463 -127.619 64.6621 -126.372 66.9473C-125.103 69.2324 -124.468 71.9677 -124.468 75.1531C-124.468 79.1694 -125.507 82.7356 -127.584 85.8517C-129.638 88.9679 -132.628 91.4261 -136.552 93.2266C-140.452 95.027 -145.173 95.9272 -150.713 95.9272C-156.022 95.9272 -160.615 95.0847 -164.493 93.3997C-168.371 91.7147 -171.406 89.3256 -173.599 86.2326C-175.792 83.1165 -177.003 79.4233 -177.234 75.1531H-166.501C-166.293 77.7152 -165.462 79.8503 -164.008 81.5584C-162.531 83.2434 -160.65 84.5014 -158.364 85.3324C-156.056 86.1403 -153.529 86.5442 -150.782 86.5442C-147.758 86.5442 -145.069 86.071 -142.715 85.1246C-140.337 84.1552 -138.467 82.8164 -137.106 81.1083C-135.744 79.3771 -135.063 77.3574 -135.063 75.0492C-135.063 72.9487 -135.663 71.229 -136.863 69.8903C-138.04 68.5515 -139.645 67.4435 -141.676 66.5664C-143.684 65.6893 -145.958 64.916 -148.497 64.2466L-156.876 61.9615C-162.554 60.4149 -167.055 58.1413 -170.379 55.1406C-173.68 52.1399 -175.33 48.1697 -175.33 43.2301C-175.33 39.1445 -174.222 35.5783 -172.006 32.5314C-169.79 29.4845 -166.789 27.1186 -163.004 25.4336C-159.218 23.7255 -154.948 22.8714 -150.193 22.8714C-145.392 22.8714 -141.156 23.714 -137.486 25.399C-133.793 27.084 -130.885 29.4038 -128.761 32.3583C-126.638 35.2898 -125.53 38.6598 -125.437 42.4684H-135.755ZM-115.583 94.75V23.8409H-71.1265V33.0508H-104.884V54.6559H-73.4463V63.8311H-104.884V85.5401H-70.711V94.75H-115.583ZM-22.061 42.4684C-22.4304 39.1907 -23.9538 36.6516 -26.6313 34.8512C-29.3089 33.0277 -32.6789 32.1159 -36.7414 32.1159C-39.6498 32.1159 -42.1658 32.5776 -44.2894 33.5009C-46.413 34.4011 -48.0633 35.6475 -49.2405 37.2402C-50.3947 38.8098 -50.9717 40.5987 -50.9717 42.6069C-50.9717 44.2919 -50.5793 45.7461 -49.7945 46.9695C-48.9866 48.1928 -47.9364 49.22 -46.6438 50.051C-45.3281 50.8588 -43.9201 51.5398 -42.4197 52.0938C-40.9193 52.6246 -39.4767 53.0632 -38.0918 53.4094L-31.167 55.2099C-28.905 55.7638 -26.5852 56.514 -24.2077 57.4604C-21.8302 58.4068 -19.6258 59.6532 -17.5946 61.1998C-15.5633 62.7463 -13.9245 64.6621 -12.678 66.9473C-11.4085 69.2324 -10.7737 71.9677 -10.7737 75.1531C-10.7737 79.1694 -11.8125 82.7356 -13.8899 85.8517C-15.9442 88.9679 -18.9334 91.4261 -22.8574 93.2266C-26.7583 95.027 -31.4786 95.9272 -37.0184 95.9272C-42.3274 95.9272 -46.9208 95.0847 -50.7986 93.3997C-54.6764 91.7147 -57.7118 89.3256 -59.9046 86.2326C-62.0974 83.1165 -63.3093 79.4233 -63.5401 75.1531H-52.8068C-52.599 77.7152 -51.7681 79.8503 -50.3139 81.5584C-48.8366 83.2434 -46.9554 84.5014 -44.6702 85.3324C-42.362 86.1403 -39.8345 86.5442 -37.0877 86.5442C-34.0639 86.5442 -31.3748 86.071 -29.0204 85.1246C-26.6429 84.1552 -24.7732 82.8164 -23.4114 81.1083C-22.0495 79.3771 -21.3686 77.3574 -21.3686 75.0492C-21.3686 72.9487 -21.9687 71.229 -23.169 69.8903C-24.3462 68.5515 -25.9504 67.4435 -27.9817 66.5664C-29.9898 65.6893 -32.2634 64.916 -34.8025 64.2466L-43.1814 61.9615C-48.8597 60.4149 -53.3608 58.1413 -56.6846 55.1406C-59.9854 52.1399 -61.6358 48.1697 -61.6358 43.2301C-61.6358 39.1445 -60.5278 35.5783 -58.3119 32.5314C-56.096 29.4845 -53.0953 27.1186 -49.3098 25.4336C-45.5243 23.7255 -41.254 22.8714 -36.4991 22.8714C-31.6979 22.8714 -27.4623 23.714 -23.7922 25.399C-20.099 27.084 -17.1907 29.4038 -15.0671 32.3583C-12.9435 35.2898 -11.8355 38.6598 -11.7432 42.4684H-22.061ZM109.724 54.829V63.7965H12.2239V54.829H109.724ZM135.517 94.75V23.8409H160.793C166.309 23.8409 170.88 24.845 174.504 26.8532C178.128 28.8613 180.84 31.6081 182.64 35.0936C184.441 38.5559 185.341 42.4569 185.341 46.7963C185.341 51.1589 184.429 55.0829 182.606 58.5684C180.805 62.0307 178.081 64.7775 174.434 66.8088C170.81 68.8169 166.252 69.821 160.758 69.821H143.377V60.7496H159.789C163.274 60.7496 166.102 60.1495 168.271 58.9492C170.441 57.7259 172.034 56.0639 173.049 53.9634C174.065 51.8629 174.573 49.4739 174.573 46.7963C174.573 44.1188 174.065 41.7413 173.049 39.6639C172.034 37.5865 170.43 35.9592 168.237 34.782C166.067 33.6048 163.205 33.0162 159.65 33.0162H146.216V94.75H135.517ZM193.983 94.75V23.8409H219.258C224.752 23.8409 229.311 24.7873 232.935 26.68C236.582 28.5728 239.305 31.1926 241.106 34.5396C242.906 37.8635 243.807 41.7067 243.807 46.0692C243.807 50.4087 242.895 54.2289 241.071 57.5297C239.271 60.8074 236.547 63.358 232.9 65.1815C229.276 67.005 224.717 67.9167 219.224 67.9167H200.077V58.7069H218.254C221.717 58.7069 224.533 58.2106 226.702 57.218C228.895 56.2255 230.5 54.7828 231.515 52.8901C232.531 50.9973 233.039 48.7237 233.039 46.0692C233.039 43.3917 232.519 41.0719 231.481 39.1099C230.465 37.1479 228.861 35.6475 226.668 34.6088C224.498 33.5471 221.647 33.0162 218.116 33.0162H204.682V94.75H193.983ZM228.988 62.7578L246.507 94.75H234.32L217.146 62.7578H228.988ZM252.925 94.75V23.8409H297.382V33.0508H263.624V54.6559H295.062V63.8311H263.624V85.5401H297.797V94.75H252.925ZM307.772 23.8409H320.756L343.331 78.9616H344.162L366.736 23.8409H379.72V94.75H369.541V43.4379H368.883L347.97 94.6461H339.522L318.61 43.4032H317.952V94.75H307.772V23.8409ZM402.074 23.8409V94.75H391.375V23.8409H402.074ZM459.354 23.8409H470.087V70.4789C470.087 75.4416 468.921 79.8388 466.59 83.6705C464.259 87.479 460.981 90.4798 456.757 92.6726C452.533 94.8423 447.582 95.9272 441.903 95.9272C436.248 95.9272 431.308 94.8423 427.084 92.6726C422.86 90.4798 419.583 87.479 417.251 83.6705C414.92 79.8388 413.754 75.4416 413.754 70.4789V23.8409H424.453V69.6133C424.453 72.8217 425.157 75.6724 426.565 78.1653C427.996 80.6582 430.016 82.6202 432.624 84.0513C435.232 85.4593 438.325 86.1634 441.903 86.1634C445.504 86.1634 448.609 85.4593 451.217 84.0513C453.848 82.6202 455.857 80.6582 457.242 78.1653C458.65 75.6724 459.354 72.8217 459.354 69.6133V23.8409ZM481.741 23.8409H494.725L517.3 78.9616H518.131L540.705 23.8409H553.689V94.75H543.51V43.4379H542.852L521.939 94.6461H513.491L492.579 43.4032H491.921V94.75H481.741V23.8409ZM587.247 23.8409H600.231L622.806 78.9616H623.636L646.211 23.8409H659.195V94.75H649.016V43.4379H648.358L627.445 94.6461H618.997L598.084 43.4032H597.426V94.75H587.247V23.8409ZM670.85 94.75V23.8409H715.306V33.0508H681.548V54.6559H712.986V63.8311H681.548V85.5401H715.722V94.75H670.85ZM782.93 23.8409V94.75H773.097L737.054 42.7454H736.396V94.75H725.697V23.8409H735.6L771.677 75.9148H772.335V23.8409H782.93ZM791.14 33.0508V23.8409H846.018V33.0508H823.893V94.75H813.229V33.0508H791.14ZM912.793 59.2955C912.793 66.8665 911.408 73.3757 908.638 78.8232C905.869 84.2475 902.071 88.4254 897.247 91.3569C892.446 94.2653 886.987 95.7195 880.87 95.7195C874.73 95.7195 869.248 94.2653 864.424 91.3569C859.623 88.4254 855.837 84.236 853.068 78.7885C850.298 73.3411 848.913 66.8434 848.913 59.2955C848.913 51.7244 850.298 45.2267 853.068 39.8024C855.837 34.3549 859.623 30.177 864.424 27.2686C869.248 24.3372 874.73 22.8714 880.87 22.8714C886.987 22.8714 892.446 24.3372 897.247 27.2686C902.071 30.177 905.869 34.3549 908.638 39.8024C911.408 45.2267 912.793 51.7244 912.793 59.2955ZM902.198 59.2955C902.198 53.5249 901.264 48.666 899.394 44.7189C897.547 40.7488 895.008 37.748 891.777 35.7168C888.568 33.6625 884.933 32.6353 880.87 32.6353C876.785 32.6353 873.138 33.6625 869.929 35.7168C866.721 37.748 864.182 40.7488 862.312 44.7189C860.465 48.666 859.542 53.5249 859.542 59.2955C859.542 65.066 860.465 69.9364 862.312 73.9066C864.182 77.8537 866.721 80.8544 869.929 82.9087C873.138 84.94 876.785 85.9556 880.87 85.9556C884.933 85.9556 888.568 84.94 891.777 82.9087C895.008 80.8544 897.547 77.8537 899.394 73.9066C901.264 69.9364 902.198 65.066 902.198 59.2955ZM922.232 94.75V23.8409H947.507C953.001 23.8409 957.56 24.7873 961.183 26.68C964.831 28.5728 967.554 31.1926 969.355 34.5396C971.155 37.8635 972.055 41.7067 972.055 46.0692C972.055 50.4087 971.144 54.2289 969.32 57.5297C967.52 60.8074 964.796 63.358 961.149 65.1815C957.525 67.005 952.966 67.9167 947.473 67.9167H928.326V58.7069H946.503C949.965 58.7069 952.781 58.2106 954.951 57.218C957.144 56.2255 958.748 54.7828 959.764 52.8901C960.78 50.9973 961.287 48.7237 961.287 46.0692C961.287 43.3917 960.768 41.0719 959.729 39.1099C958.714 37.1479 957.109 35.6475 954.917 34.6088C952.747 33.5471 949.896 33.0162 946.365 33.0162H932.931V94.75H922.232ZM957.236 62.7578L974.756 94.75H962.568L945.395 62.7578H957.236ZM1019.85 42.4684C1019.48 39.1907 1017.96 36.6516 1015.28 34.8512C1012.6 33.0277 1009.23 32.1159 1005.17 32.1159C1002.26 32.1159 999.744 32.5776 997.62 33.5009C995.496 34.4011 993.846 35.6475 992.669 37.2402C991.515 38.8098 990.938 40.5987 990.938 42.6069C990.938 44.2919 991.33 45.7461 992.115 46.9695C992.923 48.1928 993.973 49.22 995.266 50.051C996.581 50.8588 997.989 51.5398 999.49 52.0938C1000.99 52.6246 1002.43 53.0632 1003.82 53.4094L1010.74 55.2099C1013 55.7638 1015.32 56.514 1017.7 57.4604C1020.08 58.4068 1022.28 59.6532 1024.31 61.1998C1026.35 62.7463 1027.98 64.6621 1029.23 66.9473C1030.5 69.2324 1031.14 71.9677 1031.14 75.1531C1031.14 79.1694 1030.1 82.7356 1028.02 85.8517C1025.97 88.9679 1022.98 91.4261 1019.05 93.2266C1015.15 95.027 1010.43 95.9272 1004.89 95.9272C999.582 95.9272 994.989 95.0847 991.111 93.3997C987.233 91.7147 984.198 89.3256 982.005 86.2326C979.812 83.1165 978.6 79.4233 978.369 75.1531H989.103C989.31 77.7152 990.141 79.8503 991.595 81.5584C993.073 83.2434 994.954 84.5014 997.239 85.3324C999.547 86.1403 1002.07 86.5442 1004.82 86.5442C1007.85 86.5442 1010.53 86.071 1012.89 85.1246C1015.27 84.1552 1017.14 82.8164 1018.5 81.1083C1019.86 79.3771 1020.54 77.3574 1020.54 75.0492C1020.54 72.9487 1019.94 71.229 1018.74 69.8903C1017.56 68.5515 1015.96 67.4435 1013.93 66.5664C1011.92 65.6893 1009.65 64.916 1007.11 64.2466L998.728 61.9615C993.05 60.4149 988.549 58.1413 985.225 55.1406C981.924 52.1399 980.274 48.1697 980.274 43.2301C980.274 39.1445 981.381 35.5783 983.597 32.5314C985.813 29.4845 988.814 27.1186 992.6 25.4336C996.385 23.7255 1000.66 22.8714 1005.41 22.8714C1010.21 22.8714 1014.45 23.714 1018.12 25.399C1021.81 27.084 1024.72 29.4038 1026.84 32.3583C1028.97 35.2898 1030.07 38.6598 1030.17 42.4684H1019.85Z" fill="white" fill-opacity="0.2"/>
</g>
<g clip-path="url(#clip1_84_10031)">
<path d="M415.706 199.75V128.841H440.981C446.498 128.841 451.068 129.845 454.692 131.853C458.316 133.861 461.028 136.608 462.828 140.094C464.629 143.556 465.529 147.457 465.529 151.796C465.529 156.159 464.617 160.083 462.794 163.568C460.993 167.031 458.27 169.778 454.623 171.809C450.999 173.817 446.44 174.821 440.946 174.821H423.565V165.75H439.977C443.462 165.75 446.29 165.15 448.46 163.949C450.629 162.726 452.222 161.064 453.238 158.963C454.253 156.863 454.761 154.474 454.761 151.796C454.761 149.119 454.253 146.741 453.238 144.664C452.222 142.586 450.618 140.959 448.425 139.782C446.255 138.605 443.393 138.016 439.838 138.016H426.404V199.75H415.706ZM474.171 199.75V128.841H499.447C504.94 128.841 509.499 129.787 513.123 131.68C516.77 133.573 519.494 136.193 521.294 139.54C523.095 142.863 523.995 146.707 523.995 151.069C523.995 155.409 523.083 159.229 521.26 162.53C519.459 165.807 516.735 168.358 513.088 170.181C509.464 172.005 504.906 172.917 499.412 172.917H480.265V163.707H498.443C501.905 163.707 504.721 163.211 506.891 162.218C509.084 161.225 510.688 159.783 511.703 157.89C512.719 155.997 513.227 153.724 513.227 151.069C513.227 148.392 512.707 146.072 511.669 144.11C510.653 142.148 509.049 140.648 506.856 139.609C504.686 138.547 501.836 138.016 498.304 138.016H484.87V199.75H474.171ZM509.176 167.758L526.695 199.75H514.508L497.335 167.758H509.176ZM533.113 199.75V128.841H577.57V138.051H543.812V159.656H575.25V168.831H543.812V190.54H577.985V199.75H533.113ZM587.961 128.841H600.945L623.519 183.962H624.35L646.925 128.841H659.909V199.75H649.729V148.438H649.071L628.159 199.646H619.711L598.798 148.403H598.14V199.75H587.961V128.841ZM682.262 128.841V199.75H671.563V128.841H682.262ZM739.542 128.841H750.275V175.479C750.275 180.442 749.109 184.839 746.778 188.67C744.447 192.479 741.169 195.48 736.945 197.673C732.721 199.842 727.77 200.927 722.091 200.927C716.436 200.927 711.497 199.842 707.273 197.673C703.049 195.48 699.771 192.479 697.44 188.67C695.108 184.839 693.943 180.442 693.943 175.479V128.841H704.641V174.613C704.641 177.822 705.345 180.672 706.753 183.165C708.184 185.658 710.204 187.62 712.812 189.051C715.421 190.459 718.514 191.163 722.091 191.163C725.692 191.163 728.797 190.459 731.405 189.051C734.037 187.62 736.045 185.658 737.43 183.165C738.838 180.672 739.542 177.822 739.542 174.613V128.841ZM761.93 128.841H774.914L797.488 183.962H798.319L820.894 128.841H833.878V199.75H823.698V148.438H823.04L802.128 199.646H793.68L772.767 148.403H772.109V199.75H761.93V128.841ZM926.33 151.9H915.528C915.112 149.592 914.339 147.561 913.208 145.806C912.077 144.052 910.692 142.563 909.053 141.34C907.414 140.117 905.579 139.193 903.548 138.57C901.54 137.947 899.404 137.635 897.142 137.635C893.057 137.635 889.398 138.662 886.167 140.717C882.958 142.771 880.419 145.783 878.55 149.754C876.703 153.724 875.78 158.571 875.78 164.295C875.78 170.066 876.703 174.936 878.55 178.907C880.419 182.877 882.97 185.877 886.201 187.909C889.433 189.94 893.068 190.956 897.108 190.956C899.347 190.956 901.47 190.656 903.479 190.055C905.51 189.432 907.345 188.52 908.984 187.32C910.623 186.12 912.007 184.654 913.139 182.923C914.293 181.169 915.089 179.161 915.528 176.898L926.33 176.933C925.753 180.419 924.634 183.627 922.972 186.558C921.333 189.467 919.221 191.983 916.635 194.106C914.073 196.207 911.142 197.834 907.841 198.988C904.54 200.142 900.939 200.719 897.039 200.719C890.899 200.719 885.428 199.265 880.627 196.357C875.826 193.425 872.04 189.236 869.27 183.789C866.524 178.341 865.15 171.843 865.15 164.295C865.15 156.724 866.535 150.227 869.305 144.802C872.075 139.355 875.86 135.177 880.662 132.269C885.463 129.337 890.922 127.871 897.039 127.871C900.801 127.871 904.309 128.414 907.564 129.499C910.842 130.561 913.785 132.13 916.393 134.208C919.001 136.262 921.16 138.778 922.868 141.756C924.576 144.71 925.73 148.092 926.33 151.9ZM996.828 164.295C996.828 171.866 995.443 178.376 992.673 183.823C989.903 189.248 986.106 193.425 981.282 196.357C976.48 199.265 971.021 200.719 964.905 200.719C958.765 200.719 953.283 199.265 948.458 196.357C943.657 193.425 939.872 189.236 937.102 183.789C934.332 178.341 932.947 171.843 932.947 164.295C932.947 156.724 934.332 150.227 937.102 144.802C939.872 139.355 943.657 135.177 948.458 132.269C953.283 129.337 958.765 127.871 964.905 127.871C971.021 127.871 976.48 129.337 981.282 132.269C986.106 135.177 989.903 139.355 992.673 144.802C995.443 150.227 996.828 156.724 996.828 164.295ZM986.233 164.295C986.233 158.525 985.298 153.666 983.428 149.719C981.582 145.749 979.043 142.748 975.811 140.717C972.603 138.662 968.967 137.635 964.905 137.635C960.819 137.635 957.172 138.662 953.964 140.717C950.755 142.748 948.216 145.749 946.346 149.719C944.5 153.666 943.576 158.525 943.576 164.295C943.576 170.066 944.5 174.936 946.346 178.907C948.216 182.854 950.755 185.854 953.964 187.909C957.172 189.94 960.819 190.956 964.905 190.956C968.967 190.956 972.603 189.94 975.811 187.909C979.043 185.854 981.582 182.854 983.428 178.907C985.298 174.936 986.233 170.066 986.233 164.295ZM1051.87 128.841H1062.6V175.479C1062.6 180.442 1061.43 184.839 1059.1 188.67C1056.77 192.479 1053.49 195.48 1049.27 197.673C1045.04 199.842 1040.09 200.927 1034.42 200.927C1028.76 200.927 1023.82 199.842 1019.6 197.673C1015.37 195.48 1012.09 192.479 1009.76 188.67C1007.43 184.839 1006.27 180.442 1006.27 175.479V128.841H1016.96V174.613C1016.96 177.822 1017.67 180.672 1019.08 183.165C1020.51 185.658 1022.53 187.62 1025.14 189.051C1027.74 190.459 1030.84 191.163 1034.42 191.163C1038.02 191.163 1041.12 190.459 1043.73 189.051C1046.36 187.62 1048.37 185.658 1049.75 183.165C1051.16 180.672 1051.87 177.822 1051.87 174.613V128.841ZM1074.25 199.75V128.841H1099.53C1105.02 128.841 1109.58 129.787 1113.2 131.68C1116.85 133.573 1119.58 136.193 1121.38 139.54C1123.18 142.863 1124.08 146.707 1124.08 151.069C1124.08 155.409 1123.17 159.229 1121.34 162.53C1119.54 165.807 1116.82 168.358 1113.17 170.181C1109.55 172.005 1104.99 172.917 1099.49 172.917H1080.35V163.707H1098.52C1101.99 163.707 1104.8 163.211 1106.97 162.218C1109.17 161.225 1110.77 159.783 1111.79 157.89C1112.8 155.997 1113.31 153.724 1113.31 151.069C1113.31 148.392 1112.79 146.072 1111.75 144.11C1110.74 142.148 1109.13 140.648 1106.94 139.609C1104.77 138.547 1101.92 138.016 1098.39 138.016H1084.95V199.75H1074.25ZM1109.26 167.758L1126.78 199.75H1114.59L1097.42 167.758H1109.26ZM1171.87 147.468C1171.5 144.191 1169.98 141.652 1167.3 139.851C1164.62 138.028 1161.25 137.116 1157.19 137.116C1154.28 137.116 1151.77 137.578 1149.64 138.501C1147.52 139.401 1145.87 140.648 1144.69 142.24C1143.54 143.81 1142.96 145.599 1142.96 147.607C1142.96 149.292 1143.35 150.746 1144.14 151.969C1144.94 153.193 1145.99 154.22 1147.29 155.051C1148.6 155.859 1150.01 156.54 1151.51 157.094C1153.01 157.625 1154.45 158.063 1155.84 158.409L1162.76 160.21C1165.03 160.764 1167.35 161.514 1169.72 162.46C1172.1 163.407 1174.31 164.653 1176.34 166.2C1178.37 167.746 1180.01 169.662 1181.25 171.947C1182.52 174.232 1183.16 176.968 1183.16 180.153C1183.16 184.169 1182.12 187.736 1180.04 190.852C1177.99 193.968 1175 196.426 1171.07 198.227C1167.17 200.027 1162.45 200.927 1156.91 200.927C1151.6 200.927 1147.01 200.085 1143.13 198.4C1139.25 196.715 1136.22 194.326 1134.03 191.233C1131.83 188.116 1130.62 184.423 1130.39 180.153H1141.12C1141.33 182.715 1142.16 184.85 1143.62 186.558C1145.09 188.243 1146.98 189.501 1149.26 190.332C1151.57 191.14 1154.1 191.544 1156.84 191.544C1159.87 191.544 1162.56 191.071 1164.91 190.125C1167.29 189.155 1169.16 187.816 1170.52 186.108C1171.88 184.377 1172.56 182.357 1172.56 180.049C1172.56 177.949 1171.96 176.229 1170.76 174.89C1169.58 173.551 1167.98 172.444 1165.95 171.566C1163.94 170.689 1161.67 169.916 1159.13 169.247L1150.75 166.961C1145.07 165.415 1140.57 163.141 1137.25 160.141C1133.95 157.14 1132.3 153.17 1132.3 148.23C1132.3 144.145 1133.4 140.578 1135.62 137.531C1137.83 134.485 1140.84 132.119 1144.62 130.434C1148.41 128.725 1152.68 127.871 1157.43 127.871C1162.23 127.871 1166.47 128.714 1170.14 130.399C1173.83 132.084 1176.74 134.404 1178.86 137.358C1180.99 140.29 1182.1 143.66 1182.19 147.468H1171.87ZM1192.04 199.75V128.841H1236.5V138.051H1202.74V159.656H1234.18V168.831H1202.74V190.54H1236.91V199.75H1192.04ZM1285.56 147.468C1285.19 144.191 1283.67 141.652 1280.99 139.851C1278.32 138.028 1274.95 137.116 1270.88 137.116C1267.98 137.116 1265.46 137.578 1263.34 138.501C1261.21 139.401 1259.56 140.648 1258.38 142.24C1257.23 143.81 1256.65 145.599 1256.65 147.607C1256.65 149.292 1257.05 150.746 1257.83 151.969C1258.64 153.193 1259.69 154.22 1260.98 155.051C1262.3 155.859 1263.7 156.54 1265.21 157.094C1266.71 157.625 1268.15 158.063 1269.53 158.409L1276.46 160.21C1278.72 160.764 1281.04 161.514 1283.42 162.46C1285.79 163.407 1288 164.653 1290.03 166.2C1292.06 167.746 1293.7 169.662 1294.95 171.947C1296.22 174.232 1296.85 176.968 1296.85 180.153C1296.85 184.169 1295.81 187.736 1293.74 190.852C1291.68 193.968 1288.69 196.426 1284.77 198.227C1280.87 200.027 1276.15 200.927 1270.61 200.927C1265.3 200.927 1260.7 200.085 1256.83 198.4C1252.95 196.715 1249.91 194.326 1247.72 191.233C1245.53 188.116 1244.32 184.423 1244.08 180.153H1254.82C1255.03 182.715 1255.86 184.85 1257.31 186.558C1258.79 188.243 1260.67 189.501 1262.95 190.332C1265.26 191.14 1267.79 191.544 1270.54 191.544C1273.56 191.544 1276.25 191.071 1278.6 190.125C1280.98 189.155 1282.85 187.816 1284.21 186.108C1285.58 184.377 1286.26 182.357 1286.26 180.049C1286.26 177.949 1285.66 176.229 1284.46 174.89C1283.28 173.551 1281.67 172.444 1279.64 171.566C1277.64 170.689 1275.36 169.916 1272.82 169.247L1264.44 166.961C1258.77 165.415 1254.26 163.141 1250.94 160.141C1247.64 157.14 1245.99 153.17 1245.99 148.23C1245.99 144.145 1247.1 140.578 1249.31 137.531C1251.53 134.485 1254.53 132.119 1258.32 130.434C1262.1 128.725 1266.37 127.871 1271.13 127.871C1275.93 127.871 1280.16 128.714 1283.83 130.399C1287.53 132.084 1290.43 134.404 1292.56 137.358C1294.68 140.29 1295.79 143.66 1295.88 147.468H1285.56ZM1417.35 159.829V168.797H1319.85V159.829H1417.35ZM1443.14 199.75V128.841H1468.42C1473.93 128.841 1478.5 129.845 1482.13 131.853C1485.75 133.861 1488.46 136.608 1490.27 140.094C1492.07 143.556 1492.97 147.457 1492.97 151.796C1492.97 156.159 1492.05 160.083 1490.23 163.568C1488.43 167.031 1485.71 169.778 1482.06 171.809C1478.44 173.817 1473.88 174.821 1468.38 174.821H1451V165.75H1467.41C1470.9 165.75 1473.73 165.15 1475.9 163.949C1478.07 162.726 1479.66 161.064 1480.67 158.963C1481.69 156.863 1482.2 154.474 1482.2 151.796C1482.2 149.119 1481.69 146.741 1480.67 144.664C1479.66 142.586 1478.05 140.959 1475.86 139.782C1473.69 138.605 1470.83 138.016 1467.28 138.016H1453.84V199.75H1443.14ZM1501.61 199.75V128.841H1526.88C1532.38 128.841 1536.94 129.787 1540.56 131.68C1544.21 133.573 1546.93 136.193 1548.73 139.54C1550.53 142.863 1551.43 146.707 1551.43 151.069C1551.43 155.409 1550.52 159.229 1548.7 162.53C1546.9 165.807 1544.17 168.358 1540.53 170.181C1536.9 172.005 1532.34 172.917 1526.85 172.917H1507.7V163.707H1525.88C1529.34 163.707 1532.16 163.211 1534.33 162.218C1536.52 161.225 1538.12 159.783 1539.14 157.89C1540.16 155.997 1540.66 153.724 1540.66 151.069C1540.66 148.392 1540.14 146.072 1539.11 144.11C1538.09 142.148 1536.49 140.648 1534.29 139.609C1532.12 138.547 1529.27 138.016 1525.74 138.016H1512.31V199.75H1501.61ZM1536.61 167.758L1554.13 199.75H1541.94L1524.77 167.758H1536.61ZM1560.55 199.75V128.841H1605.01V138.051H1571.25V159.656H1602.69V168.831H1571.25V190.54H1605.42V199.75H1560.55ZM1615.4 128.841H1628.38L1650.96 183.962H1651.79L1674.36 128.841H1687.35V199.75H1677.17V148.438H1676.51L1655.6 199.646H1647.15L1626.23 148.403H1625.58V199.75H1615.4V128.841ZM1709.7 128.841V199.75H1699V128.841H1709.7ZM1766.98 128.841H1777.71V175.479C1777.71 180.442 1776.55 184.839 1774.21 188.67C1771.88 192.479 1768.61 195.48 1764.38 197.673C1760.16 199.842 1755.21 200.927 1749.53 200.927C1743.87 200.927 1738.93 199.842 1734.71 197.673C1730.49 195.48 1727.21 192.479 1724.88 188.67C1722.54 184.839 1721.38 180.442 1721.38 175.479V128.841H1732.08V174.613C1732.08 177.822 1732.78 180.672 1734.19 183.165C1735.62 185.658 1737.64 187.62 1740.25 189.051C1742.86 190.459 1745.95 191.163 1749.53 191.163C1753.13 191.163 1756.23 190.459 1758.84 189.051C1761.47 187.62 1763.48 185.658 1764.87 183.165C1766.27 180.672 1766.98 177.822 1766.98 174.613V128.841ZM1789.37 128.841H1802.35L1824.92 183.962H1825.76L1848.33 128.841H1861.31V199.75H1851.13V148.438H1850.48L1829.56 199.646H1821.12L1800.2 148.403H1799.55V199.75H1789.37V128.841ZM1894.87 128.841H1907.86L1930.43 183.962H1931.26L1953.84 128.841H1966.82V199.75H1956.64V148.438H1955.98L1935.07 199.646H1926.62L1905.71 148.403H1905.05V199.75H1894.87V128.841ZM1978.47 199.75V128.841H2022.93V138.051H1989.17V159.656H2020.61V168.831H1989.17V190.54H2023.35V199.75H1978.47ZM2090.55 128.841V199.75H2080.72L2044.68 147.745H2044.02V199.75H2033.32V128.841H2043.22L2079.3 180.915H2079.96V128.841H2090.55ZM2098.76 138.051V128.841H2153.64V138.051H2131.52V199.75H2120.85V138.051H2098.76ZM2220.42 164.295C2220.42 171.866 2219.03 178.376 2216.26 183.823C2213.49 189.248 2209.7 193.425 2204.87 196.357C2200.07 199.265 2194.61 200.719 2188.5 200.719C2182.36 200.719 2176.87 199.265 2172.05 196.357C2167.25 193.425 2163.46 189.236 2160.69 183.789C2157.92 178.341 2156.54 171.843 2156.54 164.295C2156.54 156.724 2157.92 150.227 2160.69 144.802C2163.46 139.355 2167.25 135.177 2172.05 132.269C2176.87 129.337 2182.36 127.871 2188.5 127.871C2194.61 127.871 2200.07 129.337 2204.87 132.269C2209.7 135.177 2213.49 139.355 2216.26 144.802C2219.03 150.227 2220.42 156.724 2220.42 164.295ZM2209.82 164.295C2209.82 158.525 2208.89 153.666 2207.02 149.719C2205.17 145.749 2202.63 142.748 2199.4 140.717C2196.19 138.662 2192.56 137.635 2188.5 137.635C2184.41 137.635 2180.76 138.662 2177.55 140.717C2174.35 142.748 2171.81 145.749 2169.94 149.719C2168.09 153.666 2167.17 158.525 2167.17 164.295C2167.17 170.066 2168.09 174.936 2169.94 178.907C2171.81 182.854 2174.35 185.854 2177.55 187.909C2180.76 189.94 2184.41 190.956 2188.5 190.956C2192.56 190.956 2196.19 189.94 2199.4 187.909C2202.63 185.854 2205.17 182.854 2207.02 178.907C2208.89 174.936 2209.82 170.066 2209.82 164.295ZM2229.86 199.75V128.841H2255.13C2260.63 128.841 2265.18 129.787 2268.81 131.68C2272.46 133.573 2275.18 136.193 2276.98 139.54C2278.78 142.863 2279.68 146.707 2279.68 151.069C2279.68 155.409 2278.77 159.229 2276.95 162.53C2275.14 165.807 2272.42 168.358 2268.77 170.181C2265.15 172.005 2260.59 172.917 2255.1 172.917H2235.95V163.707H2254.13C2257.59 163.707 2260.41 163.211 2262.58 162.218C2264.77 161.225 2266.37 159.783 2267.39 157.89C2268.4 155.997 2268.91 153.724 2268.91 151.069C2268.91 148.392 2268.39 146.072 2267.35 144.11C2266.34 142.148 2264.73 140.648 2262.54 139.609C2260.37 138.547 2257.52 138.016 2253.99 138.016H2240.56V199.75H2229.86ZM2264.86 167.758L2282.38 199.75H2270.19L2253.02 167.758H2264.86ZM2327.47 147.468C2327.1 144.191 2325.58 141.652 2322.9 139.851C2320.23 138.028 2316.86 137.116 2312.79 137.116C2309.88 137.116 2307.37 137.578 2305.24 138.501C2303.12 139.401 2301.47 140.648 2300.29 142.24C2299.14 143.81 2298.56 145.599 2298.56 147.607C2298.56 149.292 2298.95 150.746 2299.74 151.969C2300.55 153.193 2301.6 154.22 2302.89 155.051C2304.21 155.859 2305.61 156.54 2307.11 157.094C2308.61 157.625 2310.06 158.063 2311.44 158.409L2318.37 160.21C2320.63 160.764 2322.95 161.514 2325.33 162.46C2327.7 163.407 2329.91 164.653 2331.94 166.2C2333.97 167.746 2335.61 169.662 2336.86 171.947C2338.13 174.232 2338.76 176.968 2338.76 180.153C2338.76 184.169 2337.72 187.736 2335.64 190.852C2333.59 193.968 2330.6 196.426 2326.68 198.227C2322.78 200.027 2318.06 200.927 2312.52 200.927C2307.21 200.927 2302.61 200.085 2298.74 198.4C2294.86 196.715 2291.82 194.326 2289.63 191.233C2287.44 188.116 2286.23 184.423 2285.99 180.153H2296.73C2296.94 182.715 2297.77 184.85 2299.22 186.558C2300.7 188.243 2302.58 189.501 2304.86 190.332C2307.17 191.14 2309.7 191.544 2312.45 191.544C2315.47 191.544 2318.16 191.071 2320.51 190.125C2322.89 189.155 2324.76 187.816 2326.12 186.108C2327.48 184.377 2328.17 182.357 2328.17 180.049C2328.17 177.949 2327.57 176.229 2326.37 174.89C2325.19 173.551 2323.58 172.444 2321.55 171.566C2319.54 170.689 2317.27 169.916 2314.73 169.247L2306.35 166.961C2300.67 165.415 2296.17 163.141 2292.85 160.141C2289.55 157.14 2287.9 153.17 2287.9 148.23C2287.9 144.145 2289.01 140.578 2291.22 137.531C2293.44 134.485 2296.44 132.119 2300.22 130.434C2304.01 128.725 2308.28 127.871 2313.04 127.871C2317.84 127.871 2322.07 128.714 2325.74 130.399C2329.44 132.084 2332.34 134.404 2334.47 137.358C2336.59 140.29 2337.7 143.66 2337.79 147.468H2327.47Z" fill="white" fill-opacity="0.2"/>
</g>
<defs>
<clipPath id="clip0_84_10031">
<rect width="1440" height="105" fill="white" transform="translate(0.25 0.75)"/>
</clipPath>
<clipPath id="clip1_84_10031">
<rect width="1440" height="109.5" fill="white" transform="translate(0.25 105.75)"/>
</clipPath>
</defs>
</svg>
